M48
; DRILL file KiCad 10.0.6 date 2026-09-24T22:27:11
; FORMAT={-:-/ absolute / metric / decimal}
; #@! TF.CreationDate,2026-09-24T22:27:11-04:00
; #@! TF.GenerationSoftware,Kicad,Pcbnew,10.0.6
; #@! TF.FileFunction,MixedPlating,1,2
FMAT,2
METRIC
; #@! TA.AperFunction,Plated,PTH,ViaDrill
T1C0.300
; #@! TA.AperFunction,Plated,PTH,ComponentDrill
T2C0.700
; #@! TA.AperFunction,Plated,PTH,ComponentDrill
T3C0.800
; #@! TA.AperFunction,Plated,PTH,ComponentDrill
T4C0.900
; #@! TA.AperFunction,Plated,PTH,ComponentDrill
T5C1.000
; #@! TA.AperFunction,Plated,PTH,ComponentDrill
T6C1.400
%
G90
G05
T1
X82.5Y-86.5
X85.5Y-86.0
X111.5Y-88.0
X123.0Y-46.9
X123.0Y-49.5
X127.5Y-82.5
X138.0Y-87.5
X139.5Y-90.0
X140.0Y-105.0
X145.0Y-99.5
X157.5Y-90.0
X157.5Y-104.6
X161.5Y-88.5
X162.0Y-99.5
X162.0Y-102.1
X168.5Y-87.5
X169.0Y-110.0
X170.0Y-100.9
X170.0Y-105.5
X170.6Y-87.5
X170.6Y-89.0
X171.5Y-110.0
X181.0Y-119.9
T2
X82.5Y-74.96
X82.5Y-77.5
T3
X95.0Y-88.0
X95.0Y-93.0
X145.0Y-57.5
X145.0Y-77.34
X145.0Y-79.88
X145.0Y-82.42
X145.0Y-84.96
X145.0Y-87.5
X145.0Y-90.04
X145.0Y-92.58
X146.5Y-47.5
X149.0Y-47.5
X150.0Y-57.5
X152.62Y-77.34
X152.62Y-79.88
X152.62Y-82.42
X152.62Y-84.96
X152.62Y-87.5
X152.62Y-90.04
X152.62Y-92.58
T4
X82.5Y-115.0
X82.5Y-117.54
X213.34Y-85.0
X213.73Y-75.0
X213.73Y-105.0
X213.735Y-95.0
X215.88Y-85.0
X216.27Y-75.0
X216.27Y-105.0
X216.275Y-95.0
T5
X134.96Y-47.5
X137.5Y-47.5
T6
X82.5Y-92.38
X82.5Y-107.62
X107.5Y-82.38
X107.5Y-97.62
X123.0Y-67.5
X123.0Y-82.74
X123.0Y-94.38
X123.0Y-109.62
X132.5Y-67.38
X132.5Y-82.62
X132.5Y-94.38
X132.5Y-109.62
X164.5Y-94.76
X164.5Y-110.0
X165.0Y-67.26
X165.0Y-82.5
X175.0Y-67.26
X175.0Y-82.5
X175.0Y-94.76
X175.0Y-110.0
X189.76Y-85.0
X189.88Y-75.0
X189.88Y-95.0
X189.88Y-105.0
X205.0Y-85.0
X205.12Y-75.0
X205.12Y-95.0
X205.12Y-105.0
M30
