%TF.GenerationSoftware,KiCad,Pcbnew,10.0.6*%
%TF.CreationDate,2026-09-24T22:27:07-04:00*%
%TF.ProjectId,P4_PCB,50345f50-4342-42e6-9b69-6361645f7063,rev?*%
%TF.SameCoordinates,Original*%
%TF.FileFunction,Copper,L2,Bot*%
%TF.FilePolarity,Positive*%
%FSLAX46Y46*%
G04 Gerber Fmt 4.6, Leading zero omitted, Abs format (unit mm)*
G04 Created by KiCad (PCBNEW 10.0.6) date 2026-09-24 22:27:07*
%MOMM*%
%LPD*%
G01*
G04 APERTURE LIST*
G04 Aperture macros list*
%AMRoundRect*
0 Rectangle with rounded corners*
0 $1 Rounding radius*
0 $2 $3 $4 $5 $6 $7 $8 $9 X,Y pos of 4 corners*
0 Add a 4 corners polygon primitive as box body*
4,1,4,$2,$3,$4,$5,$6,$7,$8,$9,$2,$3,0*
0 Add four circle primitives for the rounded corners*
1,1,$1+$1,$2,$3*
1,1,$1+$1,$4,$5*
1,1,$1+$1,$6,$7*
1,1,$1+$1,$8,$9*
0 Add four rect primitives between the rounded corners*
20,1,$1+$1,$2,$3,$4,$5,0*
20,1,$1+$1,$4,$5,$6,$7,0*
20,1,$1+$1,$6,$7,$8,$9,0*
20,1,$1+$1,$8,$9,$2,$3,0*%
G04 Aperture macros list end*
%TA.AperFunction,ComponentPad*%
%ADD10R,1.800000X1.800000*%
%TD*%
%TA.AperFunction,ComponentPad*%
%ADD11C,1.800000*%
%TD*%
%TA.AperFunction,ComponentPad*%
%ADD12C,2.800000*%
%TD*%
%TA.AperFunction,ComponentPad*%
%ADD13R,1.700000X1.700000*%
%TD*%
%TA.AperFunction,ComponentPad*%
%ADD14C,1.700000*%
%TD*%
%TA.AperFunction,ComponentPad*%
%ADD15RoundRect,0.250000X-0.550000X-0.550000X0.550000X-0.550000X0.550000X0.550000X-0.550000X0.550000X0*%
%TD*%
%TA.AperFunction,ComponentPad*%
%ADD16C,1.600000*%
%TD*%
%TA.AperFunction,ComponentPad*%
%ADD17C,1.400000*%
%TD*%
%TA.AperFunction,ComponentPad*%
%ADD18RoundRect,0.250000X-0.950000X-0.550000X0.950000X-0.550000X0.950000X0.550000X-0.950000X0.550000X0*%
%TD*%
%TA.AperFunction,ComponentPad*%
%ADD19O,2.400000X1.600000*%
%TD*%
%TA.AperFunction,ViaPad*%
%ADD20C,0.600000*%
%TD*%
%TA.AperFunction,Conductor*%
%ADD21C,0.200000*%
%TD*%
G04 APERTURE END LIST*
D10*
%TO.P,D3,1,K_1*%
%TO.N,GND*%
X215880000Y-85000000D03*
D11*
%TO.P,D3,2,A_2*%
%TO.N,Net-(D3-A)*%
X213340000Y-85000000D03*
%TD*%
D10*
%TO.P,D1,1,K_1*%
%TO.N,GND*%
X216270000Y-105000000D03*
D11*
%TO.P,D1,2,A_2*%
%TO.N,Net-(D1-A)*%
X213730000Y-105000000D03*
%TD*%
D12*
%TO.P,R4,1*%
%TO.N,Net-(R4-Pad1)*%
X189880000Y-75000000D03*
%TO.P,R4,2*%
%TO.N,Net-(D4-A)*%
X205120000Y-75000000D03*
%TD*%
%TO.P,R8,1*%
%TO.N,+5V*%
X132500000Y-94380000D03*
%TO.P,R8,2*%
%TO.N,Net-(U1B--)*%
X132500000Y-109620000D03*
%TD*%
%TO.P,R1,1*%
%TO.N,Net-(R1-Pad1)*%
X189880000Y-105000000D03*
%TO.P,R1,2*%
%TO.N,Net-(D1-A)*%
X205120000Y-105000000D03*
%TD*%
%TO.P,R3,1*%
%TO.N,Net-(R3-Pad1)*%
X189760000Y-85000000D03*
%TO.P,R3,2*%
%TO.N,Net-(D3-A)*%
X205000000Y-85000000D03*
%TD*%
%TO.P,R5,1*%
%TO.N,Net-(U1A-+)*%
X107500000Y-82380000D03*
%TO.P,R5,2*%
%TO.N,GND*%
X107500000Y-97620000D03*
%TD*%
D13*
%TO.P,J1,1,Pin_1_1*%
%TO.N,+5V*%
X134960000Y-47500000D03*
D14*
%TO.P,J1,2,Pin_2_2*%
%TO.N,GND*%
X137500000Y-47500000D03*
%TD*%
D15*
%TO.P,C2,1*%
%TO.N,+5V*%
X146500000Y-47500000D03*
D16*
%TO.P,C2,2*%
%TO.N,GND*%
X149000000Y-47500000D03*
%TD*%
%TO.P,C3,1*%
%TO.N,Net-(U1A-+)*%
X95000000Y-88000000D03*
%TO.P,C3,2*%
%TO.N,GND*%
X95000000Y-93000000D03*
%TD*%
D10*
%TO.P,D4,1,K_1*%
%TO.N,GND*%
X216270000Y-75000000D03*
D11*
%TO.P,D4,2,A_2*%
%TO.N,Net-(D4-A)*%
X213730000Y-75000000D03*
%TD*%
D10*
%TO.P,D5,1,K_1*%
%TO.N,GND*%
X82500000Y-117540000D03*
D11*
%TO.P,D5,2,A_2*%
%TO.N,Net-(D5-A)*%
X82500000Y-115000000D03*
%TD*%
D12*
%TO.P,R9,1*%
%TO.N,Net-(U1B--)*%
X123000000Y-109620000D03*
%TO.P,R9,2*%
%TO.N,GND*%
X123000000Y-94380000D03*
%TD*%
%TO.P,R13,1*%
%TO.N,Net-(U1D--)*%
X165000000Y-82500000D03*
%TO.P,R13,2*%
%TO.N,GND*%
X165000000Y-67260000D03*
%TD*%
D16*
%TO.P,C1,1*%
%TO.N,+5V*%
X145000000Y-57500000D03*
%TO.P,C1,2*%
%TO.N,GND*%
X150000000Y-57500000D03*
%TD*%
D17*
%TO.P,TH1,1*%
%TO.N,+5V*%
X82500000Y-74960000D03*
%TO.P,TH1,2*%
%TO.N,Net-(U1A-+)*%
X82500000Y-77500000D03*
%TD*%
D12*
%TO.P,R14,1*%
%TO.N,+5V*%
X82500000Y-92380000D03*
%TO.P,R14,2*%
%TO.N,Net-(D5-A)*%
X82500000Y-107620000D03*
%TD*%
%TO.P,R2,1*%
%TO.N,Net-(R2-Pad1)*%
X189880000Y-95000000D03*
%TO.P,R2,2*%
%TO.N,Net-(D2-A)*%
X205120000Y-95000000D03*
%TD*%
%TO.P,R10,1*%
%TO.N,+5V*%
X175000000Y-94760000D03*
%TO.P,R10,2*%
%TO.N,Net-(U1C--)*%
X175000000Y-110000000D03*
%TD*%
%TO.P,R6,1*%
%TO.N,+5V*%
X132500000Y-67380000D03*
%TO.P,R6,2*%
%TO.N,Net-(U1A--)*%
X132500000Y-82620000D03*
%TD*%
%TO.P,R11,1*%
%TO.N,Net-(U1C--)*%
X164500000Y-110000000D03*
%TO.P,R11,2*%
%TO.N,GND*%
X164500000Y-94760000D03*
%TD*%
%TO.P,R12,1*%
%TO.N,+5V*%
X175000000Y-67260000D03*
%TO.P,R12,2*%
%TO.N,Net-(U1D--)*%
X175000000Y-82500000D03*
%TD*%
%TO.P,R7,1*%
%TO.N,Net-(U1A--)*%
X123000000Y-82740000D03*
%TO.P,R7,2*%
%TO.N,GND*%
X123000000Y-67500000D03*
%TD*%
D10*
%TO.P,D2,1,K_1*%
%TO.N,GND*%
X216275000Y-95000000D03*
D11*
%TO.P,D2,2,A_2*%
%TO.N,Net-(D2-A)*%
X213735000Y-95000000D03*
%TD*%
D18*
%TO.P,U1,1*%
%TO.N,Net-(R1-Pad1)*%
X145000000Y-77340000D03*
D19*
%TO.P,U1,2,-_2*%
%TO.N,Net-(U1A--)*%
X145000000Y-79880000D03*
%TO.P,U1,3,+_3*%
%TO.N,Net-(U1A-+)*%
X145000000Y-82420000D03*
%TO.P,U1,4,V+_4*%
%TO.N,+5V*%
X145000000Y-84960000D03*
%TO.P,U1,5,+_5*%
%TO.N,Net-(U1A-+)*%
X145000000Y-87500000D03*
%TO.P,U1,6,-_6*%
%TO.N,Net-(U1B--)*%
X145000000Y-90040000D03*
%TO.P,U1,7*%
%TO.N,Net-(R2-Pad1)*%
X145000000Y-92580000D03*
%TO.P,U1,8*%
%TO.N,Net-(R3-Pad1)*%
X152620000Y-92580000D03*
%TO.P,U1,9,-_9*%
%TO.N,Net-(U1C--)*%
X152620000Y-90040000D03*
%TO.P,U1,10,+_10*%
%TO.N,Net-(U1A-+)*%
X152620000Y-87500000D03*
%TO.P,U1,11,V-_11*%
%TO.N,GND*%
X152620000Y-84960000D03*
%TO.P,U1,12,+_12*%
%TO.N,Net-(U1A-+)*%
X152620000Y-82420000D03*
%TO.P,U1,13,-_13*%
%TO.N,Net-(U1D--)*%
X152620000Y-79880000D03*
%TO.P,U1,14*%
%TO.N,Net-(R4-Pad1)*%
X152620000Y-77340000D03*
%TD*%
D20*
%TO.N,Net-(U1C--)*%
X169000000Y-110000000D03*
X171500000Y-110000000D03*
%TO.N,Net-(R2-Pad1)*%
X145000000Y-99500000D03*
X181000000Y-119900000D03*
%TO.N,Net-(U1C--)*%
X157500000Y-104600000D03*
X157500000Y-90000000D03*
%TO.N,Net-(R3-Pad1)*%
X161500000Y-88500000D03*
X170600000Y-89000000D03*
%TO.N,GND*%
X170000000Y-105500000D03*
X170000000Y-100900000D03*
%TO.N,Net-(U1D--)*%
X170600000Y-87500000D03*
X168500000Y-87500000D03*
%TO.N,Net-(U1B--)*%
X139500000Y-90000000D03*
X140000000Y-105000000D03*
%TO.N,Net-(U1A--)*%
X127500000Y-82500000D03*
%TO.N,Net-(U1A-+)*%
X138000000Y-87500000D03*
X111500000Y-88000000D03*
X85500000Y-86000000D03*
X82500000Y-86500000D03*
%TO.N,GND*%
X162000000Y-99500000D03*
X162000000Y-102100000D03*
X123000000Y-46900000D03*
X123000000Y-49500000D03*
%TD*%
%TO.N,Net-(U1C--)*%
D21*
X171500000Y-110000000D02*
X169000000Y-110000000D01*
%TO.N,Net-(R2-Pad1)*%
X158500000Y-125500000D02*
X145000000Y-112000000D01*
X145000000Y-112000000D02*
X145000000Y-99500000D01*
X181000000Y-119900000D02*
X181000000Y-125500000D01*
X181000000Y-125500000D02*
X158500000Y-125500000D01*
%TO.N,Net-(U1C--)*%
X157500000Y-104600000D02*
X157500000Y-90000000D01*
%TO.N,Net-(R3-Pad1)*%
X162000000Y-89000000D02*
X161500000Y-88500000D01*
X170600000Y-89000000D02*
X162000000Y-89000000D01*
%TO.N,GND*%
X170000000Y-100900000D02*
X170000000Y-105500000D01*
%TO.N,Net-(U1D--)*%
X170600000Y-87500000D02*
X168500000Y-87500000D01*
%TO.N,Net-(U1B--)*%
X140000000Y-105000000D02*
X140000000Y-90500000D01*
X140000000Y-90500000D02*
X139500000Y-90000000D01*
%TO.N,Net-(U1A--)*%
X127620000Y-82620000D02*
X132500000Y-82620000D01*
X127500000Y-82500000D02*
X127620000Y-82620000D01*
%TO.N,Net-(U1A-+)*%
X111500000Y-88000000D02*
X137500000Y-88000000D01*
X137500000Y-88000000D02*
X138000000Y-87500000D01*
X83000000Y-86000000D02*
X82500000Y-86500000D01*
X85500000Y-86000000D02*
X83000000Y-86000000D01*
%TO.N,GND*%
X162000000Y-102100000D02*
X162000000Y-99500000D01*
X123000000Y-46900000D02*
X123000000Y-49500000D01*
%TD*%
%TA.AperFunction,Conductor*%
%TO.N,GND*%
G36*
X229613494Y-39389693D02*
G01*
X230018661Y-39406451D01*
X230028832Y-39407294D01*
X230428730Y-39457141D01*
X230438810Y-39458823D01*
X230833213Y-39541521D01*
X230843121Y-39544030D01*
X231229349Y-39659015D01*
X231239017Y-39662334D01*
X231514743Y-39769924D01*
X231614404Y-39808812D01*
X231623789Y-39812928D01*
X231985808Y-39989907D01*
X231994812Y-39994779D01*
X232340983Y-40201053D01*
X232349551Y-40206651D01*
X232677506Y-40440806D01*
X232685581Y-40447092D01*
X232816541Y-40558010D01*
X232993068Y-40707521D01*
X233000608Y-40714462D01*
X233285537Y-40999391D01*
X233292478Y-41006931D01*
X233552902Y-41314412D01*
X233559195Y-41322497D01*
X233638387Y-41433412D01*
X233793344Y-41650442D01*
X233798950Y-41659022D01*
X234005217Y-42005183D01*
X234010095Y-42014197D01*
X234187071Y-42376210D01*
X234191187Y-42385595D01*
X234337660Y-42760970D01*
X234340988Y-42770663D01*
X234455965Y-43156865D01*
X234458481Y-43166800D01*
X234541173Y-43561175D01*
X234542860Y-43571284D01*
X234592703Y-43971146D01*
X234593549Y-43981360D01*
X234610302Y-44386419D01*
X234610408Y-44391719D01*
X234499604Y-122425419D01*
X234499500Y-122427014D01*
X234499500Y-122497438D01*
X234499394Y-122502562D01*
X234482636Y-122907726D01*
X234481790Y-122917940D01*
X234431947Y-123317802D01*
X234430260Y-123327911D01*
X234347568Y-123722286D01*
X234345052Y-123732221D01*
X234230075Y-124118423D01*
X234226747Y-124128116D01*
X234080274Y-124503491D01*
X234076158Y-124512876D01*
X233899182Y-124874889D01*
X233894304Y-124883903D01*
X233688037Y-125230064D01*
X233682431Y-125238644D01*
X233448284Y-125566587D01*
X233441989Y-125574674D01*
X233181565Y-125882155D01*
X233174624Y-125889695D01*
X232889695Y-126174624D01*
X232882155Y-126181565D01*
X232574674Y-126441989D01*
X232566587Y-126448284D01*
X232238644Y-126682431D01*
X232230064Y-126688037D01*
X231883903Y-126894304D01*
X231874889Y-126899182D01*
X231512876Y-127076158D01*
X231503491Y-127080274D01*
X231128116Y-127226747D01*
X231118423Y-127230075D01*
X230732221Y-127345052D01*
X230722286Y-127347568D01*
X230327911Y-127430260D01*
X230317802Y-127431947D01*
X229917940Y-127481790D01*
X229907726Y-127482636D01*
X229502563Y-127499394D01*
X229497439Y-127499500D01*
X72002561Y-127499500D01*
X71997437Y-127499394D01*
X71592273Y-127482636D01*
X71582059Y-127481790D01*
X71182197Y-127431947D01*
X71172088Y-127430260D01*
X70777713Y-127347568D01*
X70767778Y-127345052D01*
X70381576Y-127230075D01*
X70371883Y-127226747D01*
X69996508Y-127080274D01*
X69987123Y-127076158D01*
X69625110Y-126899182D01*
X69616096Y-126894304D01*
X69269935Y-126688037D01*
X69261355Y-126682431D01*
X68933412Y-126448284D01*
X68925325Y-126441989D01*
X68617844Y-126181565D01*
X68610304Y-126174624D01*
X68325375Y-125889695D01*
X68318434Y-125882155D01*
X68191075Y-125731783D01*
X68058005Y-125574668D01*
X68051715Y-125566587D01*
X67817568Y-125238644D01*
X67811962Y-125230064D01*
X67608311Y-124888294D01*
X67605692Y-124883899D01*
X67600817Y-124874889D01*
X67595093Y-124863181D01*
X67423841Y-124512876D01*
X67419725Y-124503491D01*
X67274001Y-124130035D01*
X67273247Y-124128104D01*
X67269928Y-124118436D01*
X67154943Y-123732208D01*
X67152434Y-123722300D01*
X67069736Y-123327897D01*
X67068054Y-123317817D01*
X67018207Y-122917919D01*
X67017364Y-122907746D01*
X67000606Y-122502585D01*
X67000500Y-122497461D01*
X67000500Y-114889778D01*
X81099500Y-114889778D01*
X81099500Y-115110221D01*
X81133985Y-115327952D01*
X81202103Y-115537603D01*
X81202104Y-115537606D01*
X81302187Y-115734025D01*
X81431752Y-115912358D01*
X81431756Y-115912363D01*
X81482316Y-115962923D01*
X81515801Y-116024246D01*
X81510817Y-116093938D01*
X81468945Y-116149871D01*
X81437969Y-116166785D01*
X81357918Y-116196643D01*
X81357906Y-116196649D01*
X81242812Y-116282809D01*
X81242809Y-116282812D01*
X81156649Y-116397906D01*
X81156645Y-116397913D01*
X81106403Y-116532620D01*
X81106401Y-116532627D01*
X81100000Y-116592155D01*
X81100000Y-117290000D01*
X82124722Y-117290000D01*
X82080667Y-117366306D01*
X82050000Y-117480756D01*
X82050000Y-117599244D01*
X82080667Y-117713694D01*
X82124722Y-117790000D01*
X81100000Y-117790000D01*
X81100000Y-118487844D01*
X81106401Y-118547372D01*
X81106403Y-118547379D01*
X81156645Y-118682086D01*
X81156649Y-118682093D01*
X81242809Y-118797187D01*
X81242812Y-118797190D01*
X81357906Y-118883350D01*
X81357913Y-118883354D01*
X81492620Y-118933596D01*
X81492627Y-118933598D01*
X81552155Y-118939999D01*
X81552172Y-118940000D01*
X82250000Y-118940000D01*
X82250000Y-117915277D01*
X82326306Y-117959333D01*
X82440756Y-117990000D01*
X82559244Y-117990000D01*
X82673694Y-117959333D01*
X82750000Y-117915277D01*
X82750000Y-118940000D01*
X83447828Y-118940000D01*
X83447844Y-118939999D01*
X83507372Y-118933598D01*
X83507379Y-118933596D01*
X83642086Y-118883354D01*
X83642093Y-118883350D01*
X83757187Y-118797190D01*
X83757190Y-118797187D01*
X83843350Y-118682093D01*
X83843354Y-118682086D01*
X83893596Y-118547379D01*
X83893598Y-118547372D01*
X83899999Y-118487844D01*
X83900000Y-118487827D01*
X83900000Y-117790000D01*
X82875278Y-117790000D01*
X82919333Y-117713694D01*
X82950000Y-117599244D01*
X82950000Y-117480756D01*
X82919333Y-117366306D01*
X82875278Y-117290000D01*
X83900000Y-117290000D01*
X83900000Y-116592172D01*
X83899999Y-116592155D01*
X83893598Y-116532627D01*
X83893596Y-116532620D01*
X83843354Y-116397913D01*
X83843350Y-116397906D01*
X83757190Y-116282812D01*
X83757187Y-116282809D01*
X83642093Y-116196649D01*
X83642087Y-116196646D01*
X83562030Y-116166786D01*
X83506097Y-116124914D01*
X83481680Y-116059450D01*
X83496532Y-115991177D01*
X83517681Y-115962925D01*
X83568242Y-115912365D01*
X83697815Y-115734022D01*
X83797895Y-115537606D01*
X83866015Y-115327951D01*
X83900500Y-115110222D01*
X83900500Y-114889778D01*
X83866015Y-114672049D01*
X83797895Y-114462394D01*
X83797895Y-114462393D01*
X83763237Y-114394375D01*
X83697815Y-114265978D01*
X83681260Y-114243192D01*
X83568247Y-114087641D01*
X83568243Y-114087636D01*
X83412363Y-113931756D01*
X83412358Y-113931752D01*
X83234025Y-113802187D01*
X83234024Y-113802186D01*
X83234022Y-113802185D01*
X83171096Y-113770122D01*
X83037606Y-113702104D01*
X83037603Y-113702103D01*
X82827952Y-113633985D01*
X82719086Y-113616742D01*
X82610222Y-113599500D01*
X82389778Y-113599500D01*
X82317201Y-113610995D01*
X82172047Y-113633985D01*
X81962396Y-113702103D01*
X81962393Y-113702104D01*
X81765974Y-113802187D01*
X81587641Y-113931752D01*
X81587636Y-113931756D01*
X81431756Y-114087636D01*
X81431752Y-114087641D01*
X81302187Y-114265974D01*
X81202104Y-114462393D01*
X81202103Y-114462396D01*
X81133985Y-114672047D01*
X81099500Y-114889778D01*
X67000500Y-114889778D01*
X67000500Y-107495441D01*
X80599500Y-107495441D01*
X80599500Y-107744558D01*
X80599501Y-107744575D01*
X80632017Y-107991561D01*
X80696498Y-108232207D01*
X80791830Y-108462361D01*
X80791837Y-108462376D01*
X80916400Y-108678126D01*
X81068060Y-108875774D01*
X81068066Y-108875781D01*
X81244218Y-109051933D01*
X81244225Y-109051939D01*
X81441873Y-109203599D01*
X81657623Y-109328162D01*
X81657638Y-109328169D01*
X81756825Y-109369253D01*
X81887793Y-109423502D01*
X82128435Y-109487982D01*
X82375435Y-109520500D01*
X82375442Y-109520500D01*
X82624558Y-109520500D01*
X82624565Y-109520500D01*
X82814908Y-109495441D01*
X121099500Y-109495441D01*
X121099500Y-109744558D01*
X121099501Y-109744575D01*
X121132017Y-109991561D01*
X121196498Y-110232207D01*
X121291830Y-110462361D01*
X121291837Y-110462376D01*
X121416400Y-110678126D01*
X121568060Y-110875774D01*
X121568066Y-110875781D01*
X121744218Y-111051933D01*
X121744225Y-111051939D01*
X121941873Y-111203599D01*
X122157623Y-111328162D01*
X122157638Y-111328169D01*
X122256825Y-111369253D01*
X122387793Y-111423502D01*
X122628435Y-111487982D01*
X122875435Y-111520500D01*
X122875442Y-111520500D01*
X123124558Y-111520500D01*
X123124565Y-111520500D01*
X123371565Y-111487982D01*
X123612207Y-111423502D01*
X123842373Y-111328164D01*
X124058127Y-111203599D01*
X124255776Y-111051938D01*
X124431938Y-110875776D01*
X124583599Y-110678127D01*
X124708164Y-110462373D01*
X124803502Y-110232207D01*
X124867982Y-109991565D01*
X124900500Y-109744565D01*
X124900500Y-109495441D01*
X130599500Y-109495441D01*
X130599500Y-109744558D01*
X130599501Y-109744575D01*
X130632017Y-109991561D01*
X130696498Y-110232207D01*
X130791830Y-110462361D01*
X130791837Y-110462376D01*
X130916400Y-110678126D01*
X131068060Y-110875774D01*
X131068066Y-110875781D01*
X131244218Y-111051933D01*
X131244225Y-111051939D01*
X131441873Y-111203599D01*
X131657623Y-111328162D01*
X131657638Y-111328169D01*
X131756825Y-111369253D01*
X131887793Y-111423502D01*
X132128435Y-111487982D01*
X132375435Y-111520500D01*
X132375442Y-111520500D01*
X132624558Y-111520500D01*
X132624565Y-111520500D01*
X132871565Y-111487982D01*
X133112207Y-111423502D01*
X133342373Y-111328164D01*
X133558127Y-111203599D01*
X133755776Y-111051938D01*
X133931938Y-110875776D01*
X134083599Y-110678127D01*
X134208164Y-110462373D01*
X134303502Y-110232207D01*
X134367982Y-109991565D01*
X134400500Y-109744565D01*
X134400500Y-109495435D01*
X134367982Y-109248435D01*
X134303502Y-109007793D01*
X134208164Y-108777627D01*
X134188879Y-108744225D01*
X134083599Y-108561873D01*
X133931939Y-108364225D01*
X133931933Y-108364218D01*
X133755781Y-108188066D01*
X133755774Y-108188060D01*
X133558126Y-108036400D01*
X133342376Y-107911837D01*
X133342361Y-107911830D01*
X133112207Y-107816498D01*
X132871561Y-107752017D01*
X132624575Y-107719501D01*
X132624570Y-107719500D01*
X132624565Y-107719500D01*
X132375435Y-107719500D01*
X132375429Y-107719500D01*
X132375424Y-107719501D01*
X132128438Y-107752017D01*
X131887792Y-107816498D01*
X131657638Y-107911830D01*
X131657623Y-107911837D01*
X131441873Y-108036400D01*
X131244225Y-108188060D01*
X131244218Y-108188066D01*
X131068066Y-108364218D01*
X131068060Y-108364225D01*
X130916400Y-108561873D01*
X130791837Y-108777623D01*
X130791830Y-108777638D01*
X130696498Y-109007792D01*
X130632017Y-109248438D01*
X130599501Y-109495424D01*
X130599500Y-109495441D01*
X124900500Y-109495441D01*
X124900500Y-109495435D01*
X124867982Y-109248435D01*
X124803502Y-109007793D01*
X124708164Y-108777627D01*
X124688879Y-108744225D01*
X124583599Y-108561873D01*
X124431939Y-108364225D01*
X124431933Y-108364218D01*
X124255781Y-108188066D01*
X124255774Y-108188060D01*
X124058126Y-108036400D01*
X123842376Y-107911837D01*
X123842361Y-107911830D01*
X123612207Y-107816498D01*
X123371561Y-107752017D01*
X123124575Y-107719501D01*
X123124570Y-107719500D01*
X123124565Y-107719500D01*
X122875435Y-107719500D01*
X122875429Y-107719500D01*
X122875424Y-107719501D01*
X122628438Y-107752017D01*
X122387792Y-107816498D01*
X122157638Y-107911830D01*
X122157623Y-107911837D01*
X121941873Y-108036400D01*
X121744225Y-108188060D01*
X121744218Y-108188066D01*
X121568066Y-108364218D01*
X121568060Y-108364225D01*
X121416400Y-108561873D01*
X121291837Y-108777623D01*
X121291830Y-108777638D01*
X121196498Y-109007792D01*
X121132017Y-109248438D01*
X121099501Y-109495424D01*
X121099500Y-109495441D01*
X82814908Y-109495441D01*
X82871565Y-109487982D01*
X83112207Y-109423502D01*
X83217677Y-109379815D01*
X83224920Y-109376815D01*
X83342361Y-109328169D01*
X83342361Y-109328168D01*
X83342373Y-109328164D01*
X83558127Y-109203599D01*
X83755776Y-109051938D01*
X83931938Y-108875776D01*
X84083599Y-108678127D01*
X84208164Y-108462373D01*
X84303502Y-108232207D01*
X84367982Y-107991565D01*
X84400500Y-107744565D01*
X84400500Y-107495435D01*
X84367982Y-107248435D01*
X84303502Y-107007793D01*
X84218882Y-106803502D01*
X84208169Y-106777638D01*
X84208162Y-106777623D01*
X84083599Y-106561873D01*
X83931939Y-106364225D01*
X83931933Y-106364218D01*
X83755781Y-106188066D01*
X83755774Y-106188060D01*
X83558126Y-106036400D01*
X83342376Y-105911837D01*
X83342361Y-105911830D01*
X83112207Y-105816498D01*
X82937693Y-105769737D01*
X82871565Y-105752018D01*
X82871564Y-105752017D01*
X82871561Y-105752017D01*
X82624575Y-105719501D01*
X82624570Y-105719500D01*
X82624565Y-105719500D01*
X82375435Y-105719500D01*
X82375429Y-105719500D01*
X82375424Y-105719501D01*
X82128438Y-105752017D01*
X81887792Y-105816498D01*
X81657638Y-105911830D01*
X81657623Y-105911837D01*
X81441873Y-106036400D01*
X81244225Y-106188060D01*
X81244218Y-106188066D01*
X81068066Y-106364218D01*
X81068060Y-106364225D01*
X80916400Y-106561873D01*
X80791837Y-106777623D01*
X80791830Y-106777638D01*
X80696498Y-107007792D01*
X80632017Y-107248438D01*
X80599501Y-107495424D01*
X80599500Y-107495441D01*
X67000500Y-107495441D01*
X67000500Y-97495466D01*
X105600000Y-97495466D01*
X105600000Y-97744533D01*
X105632508Y-97991463D01*
X105696973Y-98232049D01*
X105792283Y-98462148D01*
X105792288Y-98462159D01*
X105916813Y-98677841D01*
X105916819Y-98677849D01*
X105991400Y-98775045D01*
X106860689Y-97905756D01*
X106879668Y-97951574D01*
X106956274Y-98066224D01*
X107053776Y-98163726D01*
X107168426Y-98240332D01*
X107214242Y-98259309D01*
X106344953Y-99128598D01*
X106442150Y-99203180D01*
X106442158Y-99203186D01*
X106657840Y-99327711D01*
X106657851Y-99327716D01*
X106887950Y-99423026D01*
X107128536Y-99487491D01*
X107375466Y-99520000D01*
X107624534Y-99520000D01*
X107871463Y-99487491D01*
X108112049Y-99423026D01*
X108342148Y-99327716D01*
X108342159Y-99327711D01*
X108557855Y-99203178D01*
X108655045Y-99128600D01*
X108655045Y-99128597D01*
X107785757Y-98259309D01*
X107831574Y-98240332D01*
X107946224Y-98163726D01*
X108043726Y-98066224D01*
X108120332Y-97951574D01*
X108139309Y-97905757D01*
X109008597Y-98775045D01*
X109008600Y-98775045D01*
X109083178Y-98677855D01*
X109207711Y-98462159D01*
X109207716Y-98462148D01*
X109303026Y-98232049D01*
X109367491Y-97991463D01*
X109400000Y-97744533D01*
X109400000Y-97495466D01*
X109367491Y-97248536D01*
X109303026Y-97007950D01*
X109207716Y-96777851D01*
X109207711Y-96777840D01*
X109083186Y-96562158D01*
X109083180Y-96562150D01*
X109008598Y-96464953D01*
X108139309Y-97334242D01*
X108120332Y-97288426D01*
X108043726Y-97173776D01*
X107946224Y-97076274D01*
X107831574Y-96999668D01*
X107785755Y-96980689D01*
X108655045Y-96111400D01*
X108557849Y-96036819D01*
X108557841Y-96036813D01*
X108404070Y-95948033D01*
X108342159Y-95912288D01*
X108342148Y-95912283D01*
X108112049Y-95816973D01*
X107871463Y-95752508D01*
X107624534Y-95720000D01*
X107375466Y-95720000D01*
X107128536Y-95752508D01*
X106887950Y-95816973D01*
X106657851Y-95912283D01*
X106657847Y-95912285D01*
X106442143Y-96036823D01*
X106344953Y-96111399D01*
X106344953Y-96111400D01*
X107214243Y-96980690D01*
X107168426Y-96999668D01*
X107053776Y-97076274D01*
X106956274Y-97173776D01*
X106879668Y-97288426D01*
X106860690Y-97334243D01*
X105991400Y-96464953D01*
X105991399Y-96464953D01*
X105916823Y-96562143D01*
X105792285Y-96777847D01*
X105792283Y-96777851D01*
X105696973Y-97007950D01*
X105632508Y-97248536D01*
X105600000Y-97495466D01*
X67000500Y-97495466D01*
X67000500Y-92255441D01*
X80599500Y-92255441D01*
X80599500Y-92504558D01*
X80599501Y-92504575D01*
X80632017Y-92751561D01*
X80696498Y-92992207D01*
X80791830Y-93222361D01*
X80791837Y-93222376D01*
X80916400Y-93438126D01*
X81068060Y-93635774D01*
X81068066Y-93635781D01*
X81244218Y-93811933D01*
X81244225Y-93811939D01*
X81441873Y-93963599D01*
X81657623Y-94088162D01*
X81657638Y-94088169D01*
X81756825Y-94129253D01*
X81887793Y-94183502D01*
X82128435Y-94247982D01*
X82375435Y-94280500D01*
X82375442Y-94280500D01*
X82624558Y-94280500D01*
X82624565Y-94280500D01*
X82871565Y-94247982D01*
X83112207Y-94183502D01*
X83342373Y-94088164D01*
X83558127Y-93963599D01*
X83755776Y-93811938D01*
X83931938Y-93635776D01*
X84083599Y-93438127D01*
X84208164Y-93222373D01*
X84303502Y-92992207D01*
X84328830Y-92897682D01*
X93700000Y-92897682D01*
X93700000Y-93102317D01*
X93732009Y-93304417D01*
X93795244Y-93499031D01*
X93888141Y-93681350D01*
X93888147Y-93681359D01*
X93920523Y-93725921D01*
X93920524Y-93725922D01*
X94600000Y-93046446D01*
X94600000Y-93052661D01*
X94627259Y-93154394D01*
X94679920Y-93245606D01*
X94754394Y-93320080D01*
X94845606Y-93372741D01*
X94947339Y-93400000D01*
X94953553Y-93400000D01*
X94274076Y-94079474D01*
X94318650Y-94111859D01*
X94500968Y-94204755D01*
X94695582Y-94267990D01*
X94897683Y-94300000D01*
X95102317Y-94300000D01*
X95304417Y-94267990D01*
X95342961Y-94255466D01*
X121100000Y-94255466D01*
X121100000Y-94504533D01*
X121132508Y-94751463D01*
X121196973Y-94992049D01*
X121292283Y-95222148D01*
X121292288Y-95222159D01*
X121416813Y-95437841D01*
X121416819Y-95437849D01*
X121491400Y-95535045D01*
X122360689Y-94665756D01*
X122379668Y-94711574D01*
X122456274Y-94826224D01*
X122553776Y-94923726D01*
X122668426Y-95000332D01*
X122714242Y-95019309D01*
X121844953Y-95888598D01*
X121942150Y-95963180D01*
X121942158Y-95963186D01*
X122157840Y-96087711D01*
X122157851Y-96087716D01*
X122387950Y-96183026D01*
X122628536Y-96247491D01*
X122875466Y-96280000D01*
X123124534Y-96280000D01*
X123371463Y-96247491D01*
X123612049Y-96183026D01*
X123842148Y-96087716D01*
X123842159Y-96087711D01*
X124057855Y-95963178D01*
X124155045Y-95888600D01*
X124155045Y-95888597D01*
X123285757Y-95019309D01*
X123331574Y-95000332D01*
X123446224Y-94923726D01*
X123543726Y-94826224D01*
X123620332Y-94711574D01*
X123639309Y-94665757D01*
X124508597Y-95535045D01*
X124508600Y-95535045D01*
X124583178Y-95437855D01*
X124707711Y-95222159D01*
X124707716Y-95222148D01*
X124803026Y-94992049D01*
X124867491Y-94751463D01*
X124900000Y-94504533D01*
X124900000Y-94255466D01*
X124899997Y-94255441D01*
X130599500Y-94255441D01*
X130599500Y-94504558D01*
X130599501Y-94504575D01*
X130632017Y-94751561D01*
X130696498Y-94992207D01*
X130791830Y-95222361D01*
X130791837Y-95222376D01*
X130916400Y-95438126D01*
X131068060Y-95635774D01*
X131068066Y-95635781D01*
X131244218Y-95811933D01*
X131244225Y-95811939D01*
X131441873Y-95963599D01*
X131657623Y-96088162D01*
X131657638Y-96088169D01*
X131756825Y-96129253D01*
X131887793Y-96183502D01*
X132128435Y-96247982D01*
X132375435Y-96280500D01*
X132375442Y-96280500D01*
X132624558Y-96280500D01*
X132624565Y-96280500D01*
X132871565Y-96247982D01*
X133112207Y-96183502D01*
X133342373Y-96088164D01*
X133558127Y-95963599D01*
X133755776Y-95811938D01*
X133931938Y-95635776D01*
X134083599Y-95438127D01*
X134208164Y-95222373D01*
X134303502Y-94992207D01*
X134367982Y-94751565D01*
X134400500Y-94504565D01*
X134400500Y-94255435D01*
X134367982Y-94008435D01*
X134303502Y-93767793D01*
X134236651Y-93606401D01*
X134208169Y-93537638D01*
X134208162Y-93537623D01*
X134083599Y-93321873D01*
X133931939Y-93124225D01*
X133931933Y-93124218D01*
X133755781Y-92948066D01*
X133755774Y-92948060D01*
X133558126Y-92796400D01*
X133342376Y-92671837D01*
X133342361Y-92671830D01*
X133112207Y-92576498D01*
X132871565Y-92512018D01*
X132871564Y-92512017D01*
X132871561Y-92512017D01*
X132624575Y-92479501D01*
X132624570Y-92479500D01*
X132624565Y-92479500D01*
X132375435Y-92479500D01*
X132375429Y-92479500D01*
X132375424Y-92479501D01*
X132128438Y-92512017D01*
X131887792Y-92576498D01*
X131657638Y-92671830D01*
X131657623Y-92671837D01*
X131441873Y-92796400D01*
X131244225Y-92948060D01*
X131244218Y-92948066D01*
X131068066Y-93124218D01*
X131068060Y-93124225D01*
X130916400Y-93321873D01*
X130791837Y-93537623D01*
X130791830Y-93537638D01*
X130696498Y-93767792D01*
X130632017Y-94008438D01*
X130599501Y-94255424D01*
X130599500Y-94255441D01*
X124899997Y-94255441D01*
X124867491Y-94008536D01*
X124803026Y-93767950D01*
X124707716Y-93537851D01*
X124707711Y-93537840D01*
X124583186Y-93322158D01*
X124583180Y-93322150D01*
X124508598Y-93224953D01*
X123639309Y-94094242D01*
X123620332Y-94048426D01*
X123543726Y-93933776D01*
X123446224Y-93836274D01*
X123331574Y-93759668D01*
X123285755Y-93740689D01*
X124155045Y-92871400D01*
X124057849Y-92796819D01*
X124057841Y-92796813D01*
X123842159Y-92672288D01*
X123842148Y-92672283D01*
X123612049Y-92576973D01*
X123371463Y-92512508D01*
X123124534Y-92480000D01*
X122875466Y-92480000D01*
X122628536Y-92512508D01*
X122387950Y-92576973D01*
X122157851Y-92672283D01*
X122157847Y-92672285D01*
X121942143Y-92796823D01*
X121844953Y-92871399D01*
X121844953Y-92871400D01*
X122714243Y-93740690D01*
X122668426Y-93759668D01*
X122553776Y-93836274D01*
X122456274Y-93933776D01*
X122379668Y-94048426D01*
X122360690Y-94094243D01*
X121491400Y-93224953D01*
X121491399Y-93224953D01*
X121416823Y-93322143D01*
X121292285Y-93537847D01*
X121292283Y-93537851D01*
X121196973Y-93767950D01*
X121132508Y-94008536D01*
X121100000Y-94255466D01*
X95342961Y-94255466D01*
X95499031Y-94204755D01*
X95624309Y-94140923D01*
X95681349Y-94111859D01*
X95725921Y-94079474D01*
X95046447Y-93400000D01*
X95052661Y-93400000D01*
X95154394Y-93372741D01*
X95245606Y-93320080D01*
X95320080Y-93245606D01*
X95372741Y-93154394D01*
X95400000Y-93052661D01*
X95400000Y-93046447D01*
X96079474Y-93725921D01*
X96111859Y-93681349D01*
X96204755Y-93499031D01*
X96267990Y-93304417D01*
X96300000Y-93102317D01*
X96300000Y-92897682D01*
X96267990Y-92695582D01*
X96204755Y-92500968D01*
X96111859Y-92318650D01*
X96079474Y-92274077D01*
X96079474Y-92274076D01*
X95400000Y-92953551D01*
X95400000Y-92947339D01*
X95372741Y-92845606D01*
X95320080Y-92754394D01*
X95245606Y-92679920D01*
X95154394Y-92627259D01*
X95052661Y-92600000D01*
X95046446Y-92600000D01*
X95725922Y-91920524D01*
X95725921Y-91920523D01*
X95681359Y-91888147D01*
X95681350Y-91888141D01*
X95499031Y-91795244D01*
X95304417Y-91732009D01*
X95102317Y-91700000D01*
X94897683Y-91700000D01*
X94695582Y-91732009D01*
X94500968Y-91795244D01*
X94318644Y-91888143D01*
X94274077Y-91920523D01*
X94274077Y-91920524D01*
X94953554Y-92600000D01*
X94947339Y-92600000D01*
X94845606Y-92627259D01*
X94754394Y-92679920D01*
X94679920Y-92754394D01*
X94627259Y-92845606D01*
X94600000Y-92947339D01*
X94600000Y-92953553D01*
X93920524Y-92274077D01*
X93920523Y-92274077D01*
X93888143Y-92318644D01*
X93795244Y-92500968D01*
X93732009Y-92695582D01*
X93700000Y-92897682D01*
X84328830Y-92897682D01*
X84367982Y-92751565D01*
X84400500Y-92504565D01*
X84400500Y-92255435D01*
X84367982Y-92008435D01*
X84303502Y-91767793D01*
X84257470Y-91656664D01*
X84208169Y-91537638D01*
X84208162Y-91537623D01*
X84083599Y-91321873D01*
X83931939Y-91124225D01*
X83931933Y-91124218D01*
X83755781Y-90948066D01*
X83755774Y-90948060D01*
X83558126Y-90796400D01*
X83342376Y-90671837D01*
X83342361Y-90671830D01*
X83112207Y-90576498D01*
X82871561Y-90512017D01*
X82624575Y-90479501D01*
X82624570Y-90479500D01*
X82624565Y-90479500D01*
X82375435Y-90479500D01*
X82375429Y-90479500D01*
X82375424Y-90479501D01*
X82128438Y-90512017D01*
X81887792Y-90576498D01*
X81657638Y-90671830D01*
X81657623Y-90671837D01*
X81441873Y-90796400D01*
X81244225Y-90948060D01*
X81244218Y-90948066D01*
X81068066Y-91124218D01*
X81068060Y-91124225D01*
X80916400Y-91321873D01*
X80791837Y-91537623D01*
X80791830Y-91537638D01*
X80696498Y-91767792D01*
X80632017Y-92008438D01*
X80599501Y-92255424D01*
X80599500Y-92255441D01*
X67000500Y-92255441D01*
X67000500Y-89921153D01*
X138699500Y-89921153D01*
X138699500Y-90078846D01*
X138730261Y-90233489D01*
X138730264Y-90233501D01*
X138790602Y-90379172D01*
X138790609Y-90379185D01*
X138878210Y-90510288D01*
X138878213Y-90510292D01*
X138989707Y-90621786D01*
X138989711Y-90621789D01*
X139120814Y-90709390D01*
X139120827Y-90709397D01*
X139208230Y-90745599D01*
X139266503Y-90769737D01*
X139299691Y-90776338D01*
X139361600Y-90808721D01*
X139396176Y-90869436D01*
X139399500Y-90897955D01*
X139399500Y-104420234D01*
X139379815Y-104487273D01*
X139378602Y-104489125D01*
X139290609Y-104620814D01*
X139290602Y-104620827D01*
X139230264Y-104766498D01*
X139230261Y-104766510D01*
X139199500Y-104921153D01*
X139199500Y-105078846D01*
X139230261Y-105233489D01*
X139230264Y-105233501D01*
X139290602Y-105379172D01*
X139290609Y-105379185D01*
X139378210Y-105510288D01*
X139378213Y-105510292D01*
X139489707Y-105621786D01*
X139489711Y-105621789D01*
X139620814Y-105709390D01*
X139620827Y-105709397D01*
X139723725Y-105752018D01*
X139766503Y-105769737D01*
X139921153Y-105800499D01*
X139921156Y-105800500D01*
X139921158Y-105800500D01*
X140078844Y-105800500D01*
X140078845Y-105800499D01*
X140233497Y-105769737D01*
X140379179Y-105709394D01*
X140510289Y-105621789D01*
X140621789Y-105510289D01*
X140709394Y-105379179D01*
X140712550Y-105371561D01*
X140769735Y-105233501D01*
X140769737Y-105233497D01*
X140800500Y-105078842D01*
X140800500Y-104921158D01*
X140800500Y-104921155D01*
X140800499Y-104921153D01*
X140783063Y-104833497D01*
X140769737Y-104766503D01*
X140733427Y-104678842D01*
X140709397Y-104620827D01*
X140709390Y-104620814D01*
X140621398Y-104489125D01*
X140600520Y-104422447D01*
X140600500Y-104420234D01*
X140600500Y-99421153D01*
X144199500Y-99421153D01*
X144199500Y-99578846D01*
X144230261Y-99733489D01*
X144230264Y-99733501D01*
X144290602Y-99879172D01*
X144290609Y-99879185D01*
X144378602Y-100010874D01*
X144399480Y-100077551D01*
X144399500Y-100079765D01*
X144399500Y-111913330D01*
X144399499Y-111913348D01*
X144399499Y-112079054D01*
X144399498Y-112079054D01*
X144440423Y-112231785D01*
X144469358Y-112281900D01*
X144469359Y-112281904D01*
X144469360Y-112281904D01*
X144519479Y-112368714D01*
X144519481Y-112368717D01*
X144638349Y-112487585D01*
X144638355Y-112487590D01*
X158015139Y-125864374D01*
X158015149Y-125864385D01*
X158019479Y-125868715D01*
X158019480Y-125868716D01*
X158131284Y-125980520D01*
X158218095Y-126030639D01*
X158218097Y-126030641D01*
X158256151Y-126052611D01*
X158268215Y-126059577D01*
X158420943Y-126100500D01*
X158420945Y-126100500D01*
X181079055Y-126100500D01*
X181079057Y-126100500D01*
X181231784Y-126059577D01*
X181368716Y-125980520D01*
X181480520Y-125868716D01*
X181559577Y-125731784D01*
X181600500Y-125579057D01*
X181600500Y-120479765D01*
X181620185Y-120412726D01*
X181621398Y-120410874D01*
X181709390Y-120279185D01*
X181709390Y-120279184D01*
X181709394Y-120279179D01*
X181769737Y-120133497D01*
X181800500Y-119978842D01*
X181800500Y-119821158D01*
X181800500Y-119821155D01*
X181800499Y-119821153D01*
X181769738Y-119666510D01*
X181769737Y-119666503D01*
X181769735Y-119666498D01*
X181709397Y-119520827D01*
X181709390Y-119520814D01*
X181621789Y-119389711D01*
X181621786Y-119389707D01*
X181510292Y-119278213D01*
X181510288Y-119278210D01*
X181379185Y-119190609D01*
X181379172Y-119190602D01*
X181233501Y-119130264D01*
X181233489Y-119130261D01*
X181078845Y-119099500D01*
X181078842Y-119099500D01*
X180921158Y-119099500D01*
X180921155Y-119099500D01*
X180766510Y-119130261D01*
X180766498Y-119130264D01*
X180620827Y-119190602D01*
X180620814Y-119190609D01*
X180489711Y-119278210D01*
X180489707Y-119278213D01*
X180378213Y-119389707D01*
X180378210Y-119389711D01*
X180290609Y-119520814D01*
X180290602Y-119520827D01*
X180230264Y-119666498D01*
X180230261Y-119666510D01*
X180199500Y-119821153D01*
X180199500Y-119978846D01*
X180230261Y-120133489D01*
X180230264Y-120133501D01*
X180290602Y-120279172D01*
X180290609Y-120279185D01*
X180378602Y-120410874D01*
X180399480Y-120477551D01*
X180399500Y-120479765D01*
X180399500Y-124775500D01*
X180379815Y-124842539D01*
X180327011Y-124888294D01*
X180275500Y-124899500D01*
X158800097Y-124899500D01*
X158733058Y-124879815D01*
X158712416Y-124863181D01*
X145636819Y-111787584D01*
X145603334Y-111726261D01*
X145600500Y-111699903D01*
X145600500Y-109875441D01*
X162599500Y-109875441D01*
X162599500Y-110124558D01*
X162599501Y-110124575D01*
X162632017Y-110371561D01*
X162696498Y-110612207D01*
X162791830Y-110842361D01*
X162791837Y-110842376D01*
X162916400Y-111058126D01*
X163068060Y-111255774D01*
X163068066Y-111255781D01*
X163244218Y-111431933D01*
X163244225Y-111431939D01*
X163441873Y-111583599D01*
X163657623Y-111708162D01*
X163657638Y-111708169D01*
X163756825Y-111749253D01*
X163887793Y-111803502D01*
X164128435Y-111867982D01*
X164375435Y-111900500D01*
X164375442Y-111900500D01*
X164624558Y-111900500D01*
X164624565Y-111900500D01*
X164871565Y-111867982D01*
X165112207Y-111803502D01*
X165342373Y-111708164D01*
X165558127Y-111583599D01*
X165755776Y-111431938D01*
X165931938Y-111255776D01*
X166083599Y-111058127D01*
X166208164Y-110842373D01*
X166303502Y-110612207D01*
X166367982Y-110371565D01*
X166400500Y-110124565D01*
X166400500Y-109921153D01*
X168199500Y-109921153D01*
X168199500Y-110078846D01*
X168230261Y-110233489D01*
X168230264Y-110233501D01*
X168290602Y-110379172D01*
X168290609Y-110379185D01*
X168378210Y-110510288D01*
X168378213Y-110510292D01*
X168489707Y-110621786D01*
X168489711Y-110621789D01*
X168620814Y-110709390D01*
X168620827Y-110709397D01*
X168766498Y-110769735D01*
X168766503Y-110769737D01*
X168921153Y-110800499D01*
X168921156Y-110800500D01*
X168921158Y-110800500D01*
X169078844Y-110800500D01*
X169078845Y-110800499D01*
X169233497Y-110769737D01*
X169379179Y-110709394D01*
X169379185Y-110709390D01*
X169510875Y-110621398D01*
X169577553Y-110600520D01*
X169579766Y-110600500D01*
X170920234Y-110600500D01*
X170987273Y-110620185D01*
X170989125Y-110621398D01*
X171120814Y-110709390D01*
X171120827Y-110709397D01*
X171266498Y-110769735D01*
X171266503Y-110769737D01*
X171421153Y-110800499D01*
X171421156Y-110800500D01*
X171421158Y-110800500D01*
X171578844Y-110800500D01*
X171578845Y-110800499D01*
X171733497Y-110769737D01*
X171879179Y-110709394D01*
X172010289Y-110621789D01*
X172121789Y-110510289D01*
X172209394Y-110379179D01*
X172212550Y-110371561D01*
X172269735Y-110233501D01*
X172269737Y-110233497D01*
X172300500Y-110078842D01*
X172300500Y-109921158D01*
X172300500Y-109921155D01*
X172295410Y-109895568D01*
X172295410Y-109895567D01*
X172291407Y-109875441D01*
X173099500Y-109875441D01*
X173099500Y-110124558D01*
X173099501Y-110124575D01*
X173132017Y-110371561D01*
X173196498Y-110612207D01*
X173291830Y-110842361D01*
X173291837Y-110842376D01*
X173416400Y-111058126D01*
X173568060Y-111255774D01*
X173568066Y-111255781D01*
X173744218Y-111431933D01*
X173744225Y-111431939D01*
X173941873Y-111583599D01*
X174157623Y-111708162D01*
X174157638Y-111708169D01*
X174256825Y-111749253D01*
X174387793Y-111803502D01*
X174628435Y-111867982D01*
X174875435Y-111900500D01*
X174875442Y-111900500D01*
X175124558Y-111900500D01*
X175124565Y-111900500D01*
X175371565Y-111867982D01*
X175612207Y-111803502D01*
X175842373Y-111708164D01*
X176058127Y-111583599D01*
X176255776Y-111431938D01*
X176431938Y-111255776D01*
X176583599Y-111058127D01*
X176708164Y-110842373D01*
X176803502Y-110612207D01*
X176867982Y-110371565D01*
X176900500Y-110124565D01*
X176900500Y-109875435D01*
X176867982Y-109628435D01*
X176803502Y-109387793D01*
X176727206Y-109203599D01*
X176708169Y-109157638D01*
X176708162Y-109157623D01*
X176583599Y-108941873D01*
X176431939Y-108744225D01*
X176431933Y-108744218D01*
X176255781Y-108568066D01*
X176255774Y-108568060D01*
X176058126Y-108416400D01*
X175842376Y-108291837D01*
X175842361Y-108291830D01*
X175612207Y-108196498D01*
X175580738Y-108188066D01*
X175371565Y-108132018D01*
X175371564Y-108132017D01*
X175371561Y-108132017D01*
X175124575Y-108099501D01*
X175124570Y-108099500D01*
X175124565Y-108099500D01*
X174875435Y-108099500D01*
X174875429Y-108099500D01*
X174875424Y-108099501D01*
X174628438Y-108132017D01*
X174387792Y-108196498D01*
X174157638Y-108291830D01*
X174157623Y-108291837D01*
X173941873Y-108416400D01*
X173744225Y-108568060D01*
X173744218Y-108568066D01*
X173568066Y-108744218D01*
X173568060Y-108744225D01*
X173416400Y-108941873D01*
X173291837Y-109157623D01*
X173291830Y-109157638D01*
X173196498Y-109387792D01*
X173132017Y-109628438D01*
X173099501Y-109875424D01*
X173099500Y-109875441D01*
X172291407Y-109875441D01*
X172269738Y-109766510D01*
X172269737Y-109766503D01*
X172260647Y-109744558D01*
X172209397Y-109620827D01*
X172209390Y-109620814D01*
X172121789Y-109489711D01*
X172121786Y-109489707D01*
X172010292Y-109378213D01*
X172010288Y-109378210D01*
X171879185Y-109290609D01*
X171879172Y-109290602D01*
X171733501Y-109230264D01*
X171733489Y-109230261D01*
X171578845Y-109199500D01*
X171578842Y-109199500D01*
X171421158Y-109199500D01*
X171421155Y-109199500D01*
X171266510Y-109230261D01*
X171266498Y-109230264D01*
X171120827Y-109290602D01*
X171120814Y-109290609D01*
X170989125Y-109378602D01*
X170922447Y-109399480D01*
X170920234Y-109399500D01*
X169579766Y-109399500D01*
X169512727Y-109379815D01*
X169510875Y-109378602D01*
X169379185Y-109290609D01*
X169379172Y-109290602D01*
X169233501Y-109230264D01*
X169233489Y-109230261D01*
X169078845Y-109199500D01*
X169078842Y-109199500D01*
X168921158Y-109199500D01*
X168921155Y-109199500D01*
X168766510Y-109230261D01*
X168766498Y-109230264D01*
X168620827Y-109290602D01*
X168620814Y-109290609D01*
X168489711Y-109378210D01*
X168489707Y-109378213D01*
X168378213Y-109489707D01*
X168378210Y-109489711D01*
X168290609Y-109620814D01*
X168290602Y-109620827D01*
X168230264Y-109766498D01*
X168230261Y-109766510D01*
X168199500Y-109921153D01*
X166400500Y-109921153D01*
X166400500Y-109875435D01*
X166367982Y-109628435D01*
X166303502Y-109387793D01*
X166227206Y-109203599D01*
X166208169Y-109157638D01*
X166208162Y-109157623D01*
X166083599Y-108941873D01*
X165931939Y-108744225D01*
X165931933Y-108744218D01*
X165755781Y-108568066D01*
X165755774Y-108568060D01*
X165558126Y-108416400D01*
X165342376Y-108291837D01*
X165342361Y-108291830D01*
X165112207Y-108196498D01*
X165080738Y-108188066D01*
X164871565Y-108132018D01*
X164871564Y-108132017D01*
X164871561Y-108132017D01*
X164624575Y-108099501D01*
X164624570Y-108099500D01*
X164624565Y-108099500D01*
X164375435Y-108099500D01*
X164375429Y-108099500D01*
X164375424Y-108099501D01*
X164128438Y-108132017D01*
X163887792Y-108196498D01*
X163657638Y-108291830D01*
X163657623Y-108291837D01*
X163441873Y-108416400D01*
X163244225Y-108568060D01*
X163244218Y-108568066D01*
X163068066Y-108744218D01*
X163068060Y-108744225D01*
X162916400Y-108941873D01*
X162791837Y-109157623D01*
X162791830Y-109157638D01*
X162696498Y-109387792D01*
X162632017Y-109628438D01*
X162599501Y-109875424D01*
X162599500Y-109875441D01*
X145600500Y-109875441D01*
X145600500Y-100079765D01*
X145620185Y-100012726D01*
X145621398Y-100010874D01*
X145709390Y-99879185D01*
X145709390Y-99879184D01*
X145709394Y-99879179D01*
X145769737Y-99733497D01*
X145800500Y-99578842D01*
X145800500Y-99421158D01*
X145800500Y-99421155D01*
X145800499Y-99421153D01*
X145769738Y-99266510D01*
X145769737Y-99266503D01*
X145769735Y-99266498D01*
X145709397Y-99120827D01*
X145709390Y-99120814D01*
X145621789Y-98989711D01*
X145621786Y-98989707D01*
X145510292Y-98878213D01*
X145510288Y-98878210D01*
X145379185Y-98790609D01*
X145379172Y-98790602D01*
X145233501Y-98730264D01*
X145233489Y-98730261D01*
X145078845Y-98699500D01*
X145078842Y-98699500D01*
X144921158Y-98699500D01*
X144921155Y-98699500D01*
X144766510Y-98730261D01*
X144766498Y-98730264D01*
X144620827Y-98790602D01*
X144620814Y-98790609D01*
X144489711Y-98878210D01*
X144489707Y-98878213D01*
X144378213Y-98989707D01*
X144378210Y-98989711D01*
X144290609Y-99120814D01*
X144290602Y-99120827D01*
X144230264Y-99266498D01*
X144230261Y-99266510D01*
X144199500Y-99421153D01*
X140600500Y-99421153D01*
X140600500Y-90589060D01*
X140600501Y-90589047D01*
X140600501Y-90420944D01*
X140600501Y-90420943D01*
X140559577Y-90268216D01*
X140559573Y-90268209D01*
X140480524Y-90131290D01*
X140480518Y-90131282D01*
X140334573Y-89985337D01*
X140301088Y-89924014D01*
X140300637Y-89921847D01*
X140269738Y-89766510D01*
X140269737Y-89766503D01*
X140209794Y-89621786D01*
X140209397Y-89620827D01*
X140209390Y-89620814D01*
X140121789Y-89489711D01*
X140121786Y-89489707D01*
X140010292Y-89378213D01*
X140010288Y-89378210D01*
X139879185Y-89290609D01*
X139879172Y-89290602D01*
X139733501Y-89230264D01*
X139733489Y-89230261D01*
X139578845Y-89199500D01*
X139578842Y-89199500D01*
X139421158Y-89199500D01*
X139421155Y-89199500D01*
X139266510Y-89230261D01*
X139266498Y-89230264D01*
X139120827Y-89290602D01*
X139120814Y-89290609D01*
X138989711Y-89378210D01*
X138989707Y-89378213D01*
X138878213Y-89489707D01*
X138878210Y-89489711D01*
X138790609Y-89620814D01*
X138790602Y-89620827D01*
X138730264Y-89766498D01*
X138730261Y-89766510D01*
X138699500Y-89921153D01*
X67000500Y-89921153D01*
X67000500Y-87897648D01*
X93699500Y-87897648D01*
X93699500Y-88102351D01*
X93731522Y-88304534D01*
X93794781Y-88499223D01*
X93887715Y-88681613D01*
X94008028Y-88847213D01*
X94152786Y-88991971D01*
X94272359Y-89078844D01*
X94318390Y-89112287D01*
X94434607Y-89171503D01*
X94500776Y-89205218D01*
X94500778Y-89205218D01*
X94500781Y-89205220D01*
X94587784Y-89233489D01*
X94695465Y-89268477D01*
X94796557Y-89284488D01*
X94897648Y-89300500D01*
X94897649Y-89300500D01*
X95102351Y-89300500D01*
X95102352Y-89300500D01*
X95304534Y-89268477D01*
X95499219Y-89205220D01*
X95681610Y-89112287D01*
X95774590Y-89044732D01*
X95847213Y-88991971D01*
X95847215Y-88991968D01*
X95847219Y-88991966D01*
X95991966Y-88847219D01*
X95991968Y-88847215D01*
X95991971Y-88847213D01*
X96048259Y-88769738D01*
X96112287Y-88681610D01*
X96205220Y-88499219D01*
X96268477Y-88304534D01*
X96300500Y-88102352D01*
X96300500Y-87921153D01*
X110699500Y-87921153D01*
X110699500Y-88078846D01*
X110730261Y-88233489D01*
X110730264Y-88233501D01*
X110790602Y-88379172D01*
X110790609Y-88379185D01*
X110878210Y-88510288D01*
X110878213Y-88510292D01*
X110989707Y-88621786D01*
X110989711Y-88621789D01*
X111120814Y-88709390D01*
X111120827Y-88709397D01*
X111254318Y-88764690D01*
X111266503Y-88769737D01*
X111421153Y-88800499D01*
X111421156Y-88800500D01*
X111421158Y-88800500D01*
X111578844Y-88800500D01*
X111578845Y-88800499D01*
X111733497Y-88769737D01*
X111879179Y-88709394D01*
X111920761Y-88681610D01*
X112010875Y-88621398D01*
X112077553Y-88600520D01*
X112079766Y-88600500D01*
X137413331Y-88600500D01*
X137413347Y-88600501D01*
X137420943Y-88600501D01*
X137579054Y-88600501D01*
X137579057Y-88600501D01*
X137731785Y-88559577D01*
X137781904Y-88530639D01*
X137868716Y-88480520D01*
X137980520Y-88368716D01*
X137980521Y-88368714D01*
X138014662Y-88334572D01*
X138075983Y-88301089D01*
X138078150Y-88300638D01*
X138136085Y-88289113D01*
X138233497Y-88269737D01*
X138379179Y-88209394D01*
X138510289Y-88121789D01*
X138621789Y-88010289D01*
X138709394Y-87879179D01*
X138769737Y-87733497D01*
X138800500Y-87578842D01*
X138800500Y-87421158D01*
X138800500Y-87421155D01*
X138800499Y-87421153D01*
X138796192Y-87399500D01*
X138769737Y-87266503D01*
X138769735Y-87266498D01*
X138709397Y-87120827D01*
X138709390Y-87120814D01*
X138621789Y-86989711D01*
X138621786Y-86989707D01*
X138510292Y-86878213D01*
X138510288Y-86878210D01*
X138379185Y-86790609D01*
X138379172Y-86790602D01*
X138233501Y-86730264D01*
X138233489Y-86730261D01*
X138078845Y-86699500D01*
X138078842Y-86699500D01*
X137921158Y-86699500D01*
X137921155Y-86699500D01*
X137766510Y-86730261D01*
X137766498Y-86730264D01*
X137620827Y-86790602D01*
X137620814Y-86790609D01*
X137489711Y-86878210D01*
X137489707Y-86878213D01*
X137378213Y-86989707D01*
X137378210Y-86989711D01*
X137290609Y-87120814D01*
X137290602Y-87120827D01*
X137230264Y-87266498D01*
X137230261Y-87266510D01*
X137223661Y-87299691D01*
X137191276Y-87361602D01*
X137130561Y-87396176D01*
X137102044Y-87399500D01*
X112079766Y-87399500D01*
X112012727Y-87379815D01*
X112010875Y-87378602D01*
X111879185Y-87290609D01*
X111879172Y-87290602D01*
X111733501Y-87230264D01*
X111733489Y-87230261D01*
X111578845Y-87199500D01*
X111578842Y-87199500D01*
X111421158Y-87199500D01*
X111421155Y-87199500D01*
X111266510Y-87230261D01*
X111266498Y-87230264D01*
X111120827Y-87290602D01*
X111120814Y-87290609D01*
X110989711Y-87378210D01*
X110989707Y-87378213D01*
X110878213Y-87489707D01*
X110878210Y-87489711D01*
X110790609Y-87620814D01*
X110790602Y-87620827D01*
X110730264Y-87766498D01*
X110730261Y-87766510D01*
X110699500Y-87921153D01*
X96300500Y-87921153D01*
X96300500Y-87897648D01*
X96283545Y-87790602D01*
X96268477Y-87695465D01*
X96230584Y-87578844D01*
X96205220Y-87500781D01*
X96205218Y-87500778D01*
X96205218Y-87500776D01*
X96164647Y-87421153D01*
X96112287Y-87318390D01*
X96099289Y-87300499D01*
X95991971Y-87152786D01*
X95847213Y-87008028D01*
X95681613Y-86887715D01*
X95681612Y-86887714D01*
X95681610Y-86887713D01*
X95624653Y-86858691D01*
X95499223Y-86794781D01*
X95304534Y-86731522D01*
X95129995Y-86703878D01*
X95102352Y-86699500D01*
X94897648Y-86699500D01*
X94873329Y-86703351D01*
X94695465Y-86731522D01*
X94500776Y-86794781D01*
X94318386Y-86887715D01*
X94152786Y-87008028D01*
X94008028Y-87152786D01*
X93887715Y-87318386D01*
X93794781Y-87500776D01*
X93731522Y-87695465D01*
X93699500Y-87897648D01*
X67000500Y-87897648D01*
X67000500Y-86421153D01*
X81699500Y-86421153D01*
X81699500Y-86578846D01*
X81730261Y-86733489D01*
X81730264Y-86733501D01*
X81790602Y-86879172D01*
X81790609Y-86879185D01*
X81878210Y-87010288D01*
X81878213Y-87010292D01*
X81989707Y-87121786D01*
X81989711Y-87121789D01*
X82120814Y-87209390D01*
X82120827Y-87209397D01*
X82258683Y-87266498D01*
X82266503Y-87269737D01*
X82417091Y-87299691D01*
X82421153Y-87300499D01*
X82421156Y-87300500D01*
X82421158Y-87300500D01*
X82578844Y-87300500D01*
X82578845Y-87300499D01*
X82733497Y-87269737D01*
X82879179Y-87209394D01*
X83010289Y-87121789D01*
X83121789Y-87010289D01*
X83209394Y-86879179D01*
X83269737Y-86733497D01*
X83274531Y-86709397D01*
X83276339Y-86700309D01*
X83308724Y-86638398D01*
X83369439Y-86603824D01*
X83397956Y-86600500D01*
X84920234Y-86600500D01*
X84987273Y-86620185D01*
X84989125Y-86621398D01*
X85120814Y-86709390D01*
X85120827Y-86709397D01*
X85266498Y-86769735D01*
X85266503Y-86769737D01*
X85392402Y-86794780D01*
X85421153Y-86800499D01*
X85421156Y-86800500D01*
X85421158Y-86800500D01*
X85578844Y-86800500D01*
X85578845Y-86800499D01*
X85733497Y-86769737D01*
X85879179Y-86709394D01*
X86010289Y-86621789D01*
X86121789Y-86510289D01*
X86209394Y-86379179D01*
X86269737Y-86233497D01*
X86300500Y-86078842D01*
X86300500Y-85921158D01*
X86300500Y-85921155D01*
X86300499Y-85921153D01*
X86284829Y-85842376D01*
X86269737Y-85766503D01*
X86256283Y-85734022D01*
X86209397Y-85620827D01*
X86209390Y-85620814D01*
X86121789Y-85489711D01*
X86121786Y-85489707D01*
X86010292Y-85378213D01*
X86010288Y-85378210D01*
X85879185Y-85290609D01*
X85879172Y-85290602D01*
X85733501Y-85230264D01*
X85733489Y-85230261D01*
X85578845Y-85199500D01*
X85578842Y-85199500D01*
X85421158Y-85199500D01*
X85421155Y-85199500D01*
X85266510Y-85230261D01*
X85266498Y-85230264D01*
X85120827Y-85290602D01*
X85120814Y-85290609D01*
X84989125Y-85378602D01*
X84922447Y-85399480D01*
X84920234Y-85399500D01*
X83086670Y-85399500D01*
X83086654Y-85399499D01*
X83079058Y-85399499D01*
X82920943Y-85399499D01*
X82846923Y-85419333D01*
X82768214Y-85440423D01*
X82768209Y-85440426D01*
X82631290Y-85519475D01*
X82631286Y-85519478D01*
X82485337Y-85665427D01*
X82424014Y-85698911D01*
X82421848Y-85699362D01*
X82266508Y-85730261D01*
X82266498Y-85730264D01*
X82120827Y-85790602D01*
X82120814Y-85790609D01*
X81989711Y-85878210D01*
X81989707Y-85878213D01*
X81878213Y-85989707D01*
X81878210Y-85989711D01*
X81790609Y-86120814D01*
X81790602Y-86120827D01*
X81730264Y-86266498D01*
X81730261Y-86266510D01*
X81699500Y-86421153D01*
X67000500Y-86421153D01*
X67000500Y-82255441D01*
X105599500Y-82255441D01*
X105599500Y-82504558D01*
X105599501Y-82504575D01*
X105631097Y-82744575D01*
X105632018Y-82751565D01*
X105662296Y-82864565D01*
X105696498Y-82992207D01*
X105791830Y-83222361D01*
X105791837Y-83222376D01*
X105916400Y-83438126D01*
X106068060Y-83635774D01*
X106068066Y-83635781D01*
X106244218Y-83811933D01*
X106244225Y-83811939D01*
X106441873Y-83963599D01*
X106657623Y-84088162D01*
X106657638Y-84088169D01*
X106756825Y-84129253D01*
X106887793Y-84183502D01*
X107128435Y-84247982D01*
X107375435Y-84280500D01*
X107375442Y-84280500D01*
X107624558Y-84280500D01*
X107624565Y-84280500D01*
X107871565Y-84247982D01*
X108112207Y-84183502D01*
X108342373Y-84088164D01*
X108558127Y-83963599D01*
X108755776Y-83811938D01*
X108931938Y-83635776D01*
X109083599Y-83438127D01*
X109208164Y-83222373D01*
X109303502Y-82992207D01*
X109367982Y-82751565D01*
X109385903Y-82615441D01*
X121099500Y-82615441D01*
X121099500Y-82864558D01*
X121099501Y-82864575D01*
X121132017Y-83111561D01*
X121196498Y-83352207D01*
X121291830Y-83582361D01*
X121291837Y-83582376D01*
X121416400Y-83798126D01*
X121568060Y-83995774D01*
X121568066Y-83995781D01*
X121744218Y-84171933D01*
X121744225Y-84171939D01*
X121941873Y-84323599D01*
X122157623Y-84448162D01*
X122157638Y-84448169D01*
X122253756Y-84487982D01*
X122387793Y-84543502D01*
X122628435Y-84607982D01*
X122875435Y-84640500D01*
X122875442Y-84640500D01*
X123124558Y-84640500D01*
X123124565Y-84640500D01*
X123371565Y-84607982D01*
X123612207Y-84543502D01*
X123842373Y-84448164D01*
X124058127Y-84323599D01*
X124255776Y-84171938D01*
X124431938Y-83995776D01*
X124583599Y-83798127D01*
X124708164Y-83582373D01*
X124803502Y-83352207D01*
X124867982Y-83111565D01*
X124900500Y-82864565D01*
X124900500Y-82615435D01*
X124874922Y-82421153D01*
X126699500Y-82421153D01*
X126699500Y-82578846D01*
X126730261Y-82733489D01*
X126730264Y-82733501D01*
X126790602Y-82879172D01*
X126790609Y-82879185D01*
X126878210Y-83010288D01*
X126878213Y-83010292D01*
X126989707Y-83121786D01*
X126989711Y-83121789D01*
X127120814Y-83209390D01*
X127120827Y-83209397D01*
X127260409Y-83267213D01*
X127266503Y-83269737D01*
X127383398Y-83292989D01*
X127421153Y-83300499D01*
X127421156Y-83300500D01*
X127421158Y-83300500D01*
X127578844Y-83300500D01*
X127578845Y-83300499D01*
X127655152Y-83285320D01*
X127733488Y-83269739D01*
X127733490Y-83269738D01*
X127733497Y-83269737D01*
X127829579Y-83229939D01*
X127877031Y-83220500D01*
X130608795Y-83220500D01*
X130675834Y-83240185D01*
X130721589Y-83292989D01*
X130723356Y-83297048D01*
X130791830Y-83462361D01*
X130791837Y-83462376D01*
X130916400Y-83678126D01*
X131068060Y-83875774D01*
X131068066Y-83875781D01*
X131244218Y-84051933D01*
X131244225Y-84051939D01*
X131441873Y-84203599D01*
X131657623Y-84328162D01*
X131657638Y-84328169D01*
X131753756Y-84367982D01*
X131887793Y-84423502D01*
X132128435Y-84487982D01*
X132375435Y-84520500D01*
X132375442Y-84520500D01*
X132624558Y-84520500D01*
X132624565Y-84520500D01*
X132871565Y-84487982D01*
X133112207Y-84423502D01*
X133342373Y-84328164D01*
X133558127Y-84203599D01*
X133755776Y-84051938D01*
X133931938Y-83875776D01*
X134083599Y-83678127D01*
X134208164Y-83462373D01*
X134303502Y-83232207D01*
X134367982Y-82991565D01*
X134400500Y-82744565D01*
X134400500Y-82495435D01*
X134367982Y-82248435D01*
X134303502Y-82007793D01*
X134249253Y-81876825D01*
X134208169Y-81777638D01*
X134208162Y-81777623D01*
X134083599Y-81561873D01*
X133931939Y-81364225D01*
X133931933Y-81364218D01*
X133755781Y-81188066D01*
X133755774Y-81188060D01*
X133558126Y-81036400D01*
X133342376Y-80911837D01*
X133342361Y-80911830D01*
X133112207Y-80816498D01*
X132871561Y-80752017D01*
X132624575Y-80719501D01*
X132624570Y-80719500D01*
X132624565Y-80719500D01*
X132375435Y-80719500D01*
X132375429Y-80719500D01*
X132375424Y-80719501D01*
X132128438Y-80752017D01*
X131887792Y-80816498D01*
X131657638Y-80911830D01*
X131657623Y-80911837D01*
X131441873Y-81036400D01*
X131244225Y-81188060D01*
X131244218Y-81188066D01*
X131068066Y-81364218D01*
X131068060Y-81364225D01*
X130916400Y-81561873D01*
X130791837Y-81777623D01*
X130791830Y-81777638D01*
X130723356Y-81942952D01*
X130679515Y-81997356D01*
X130613221Y-82019421D01*
X130608795Y-82019500D01*
X128202941Y-82019500D01*
X128135902Y-81999815D01*
X128115260Y-81983181D01*
X128010292Y-81878213D01*
X128010288Y-81878210D01*
X127879185Y-81790609D01*
X127879172Y-81790602D01*
X127733501Y-81730264D01*
X127733489Y-81730261D01*
X127578845Y-81699500D01*
X127578842Y-81699500D01*
X127421158Y-81699500D01*
X127421155Y-81699500D01*
X127266510Y-81730261D01*
X127266498Y-81730264D01*
X127120827Y-81790602D01*
X127120814Y-81790609D01*
X126989711Y-81878210D01*
X126989707Y-81878213D01*
X126878213Y-81989707D01*
X126878210Y-81989711D01*
X126790609Y-82120814D01*
X126790602Y-82120827D01*
X126730264Y-82266498D01*
X126730261Y-82266510D01*
X126699500Y-82421153D01*
X124874922Y-82421153D01*
X124867982Y-82368435D01*
X124803502Y-82127793D01*
X124749253Y-81996825D01*
X124708169Y-81897638D01*
X124708162Y-81897623D01*
X124583599Y-81681873D01*
X124431939Y-81484225D01*
X124431933Y-81484218D01*
X124255781Y-81308066D01*
X124255774Y-81308060D01*
X124058126Y-81156400D01*
X123842376Y-81031837D01*
X123842361Y-81031830D01*
X123612207Y-80936498D01*
X123371561Y-80872017D01*
X123124575Y-80839501D01*
X123124570Y-80839500D01*
X123124565Y-80839500D01*
X122875435Y-80839500D01*
X122875429Y-80839500D01*
X122875424Y-80839501D01*
X122628438Y-80872017D01*
X122387792Y-80936498D01*
X122157638Y-81031830D01*
X122157623Y-81031837D01*
X121941873Y-81156400D01*
X121744225Y-81308060D01*
X121744218Y-81308066D01*
X121568066Y-81484218D01*
X121568060Y-81484225D01*
X121416400Y-81681873D01*
X121291837Y-81897623D01*
X121291830Y-81897638D01*
X121196498Y-82127792D01*
X121132017Y-82368438D01*
X121099501Y-82615424D01*
X121099500Y-82615441D01*
X109385903Y-82615441D01*
X109400500Y-82504565D01*
X109400500Y-82255435D01*
X109367982Y-82008435D01*
X109303502Y-81767793D01*
X109249253Y-81636825D01*
X109208169Y-81537638D01*
X109208162Y-81537623D01*
X109083599Y-81321873D01*
X108931939Y-81124225D01*
X108931933Y-81124218D01*
X108755781Y-80948066D01*
X108755774Y-80948060D01*
X108558126Y-80796400D01*
X108342376Y-80671837D01*
X108342361Y-80671830D01*
X108112207Y-80576498D01*
X107871561Y-80512017D01*
X107624575Y-80479501D01*
X107624570Y-80479500D01*
X107624565Y-80479500D01*
X107375435Y-80479500D01*
X107375429Y-80479500D01*
X107375424Y-80479501D01*
X107128438Y-80512017D01*
X106887792Y-80576498D01*
X106657638Y-80671830D01*
X106657623Y-80671837D01*
X106441873Y-80796400D01*
X106244225Y-80948060D01*
X106244218Y-80948066D01*
X106068066Y-81124218D01*
X106068060Y-81124225D01*
X105916400Y-81321873D01*
X105791837Y-81537623D01*
X105791830Y-81537638D01*
X105696498Y-81767792D01*
X105632017Y-82008438D01*
X105599501Y-82255424D01*
X105599500Y-82255441D01*
X67000500Y-82255441D01*
X67000500Y-74865513D01*
X81299500Y-74865513D01*
X81299500Y-75054486D01*
X81329059Y-75241118D01*
X81387454Y-75420836D01*
X81446952Y-75537606D01*
X81473240Y-75589199D01*
X81584310Y-75742073D01*
X81717927Y-75875690D01*
X81870801Y-75986760D01*
X81931493Y-76017684D01*
X82039163Y-76072545D01*
X82039165Y-76072545D01*
X82039168Y-76072547D01*
X82128734Y-76101649D01*
X82160803Y-76112069D01*
X82218478Y-76151507D01*
X82245676Y-76215866D01*
X82233761Y-76284712D01*
X82186516Y-76336188D01*
X82160803Y-76347931D01*
X82039163Y-76387454D01*
X81870800Y-76473240D01*
X81843905Y-76492781D01*
X81717927Y-76584310D01*
X81717925Y-76584312D01*
X81717924Y-76584312D01*
X81584312Y-76717924D01*
X81584312Y-76717925D01*
X81584310Y-76717927D01*
X81536610Y-76783579D01*
X81473240Y-76870800D01*
X81387454Y-77039163D01*
X81329059Y-77218881D01*
X81299500Y-77405513D01*
X81299500Y-77594486D01*
X81329059Y-77781118D01*
X81387454Y-77960836D01*
X81429216Y-78042797D01*
X81473240Y-78129199D01*
X81584310Y-78282073D01*
X81717927Y-78415690D01*
X81870801Y-78526760D01*
X81950347Y-78567290D01*
X82039163Y-78612545D01*
X82039165Y-78612545D01*
X82039168Y-78612547D01*
X82102854Y-78633240D01*
X82218881Y-78670940D01*
X82405514Y-78700500D01*
X82405519Y-78700500D01*
X82594486Y-78700500D01*
X82781118Y-78670940D01*
X82960832Y-78612547D01*
X83129199Y-78526760D01*
X83282073Y-78415690D01*
X83415690Y-78282073D01*
X83526760Y-78129199D01*
X83612547Y-77960832D01*
X83670940Y-77781118D01*
X83700500Y-77594486D01*
X83700500Y-77405513D01*
X83670940Y-77218881D01*
X83612545Y-77039163D01*
X83541891Y-76900498D01*
X83526760Y-76870801D01*
X83504949Y-76840781D01*
X83482384Y-76809722D01*
X83482382Y-76809720D01*
X83467364Y-76789049D01*
X83431715Y-76739983D01*
X143299500Y-76739983D01*
X143299500Y-77940001D01*
X143299501Y-77940018D01*
X143310000Y-78042796D01*
X143310001Y-78042799D01*
X143338632Y-78129199D01*
X143365186Y-78209334D01*
X143457288Y-78358656D01*
X143581344Y-78482712D01*
X143730666Y-78574814D01*
X143812570Y-78601954D01*
X143870015Y-78641727D01*
X143896838Y-78706243D01*
X143884523Y-78775018D01*
X143846451Y-78819978D01*
X143752787Y-78888028D01*
X143752782Y-78888032D01*
X143608028Y-79032786D01*
X143487715Y-79198386D01*
X143394781Y-79380776D01*
X143331522Y-79575465D01*
X143299500Y-79777648D01*
X143299500Y-79982351D01*
X143331522Y-80184534D01*
X143394781Y-80379223D01*
X143487715Y-80561613D01*
X143608028Y-80727213D01*
X143752786Y-80871971D01*
X143907749Y-80984556D01*
X143918390Y-80992287D01*
X144009840Y-81038883D01*
X144011080Y-81039515D01*
X144061876Y-81087490D01*
X144078671Y-81155311D01*
X144056134Y-81221446D01*
X144011080Y-81260485D01*
X143918386Y-81307715D01*
X143752786Y-81428028D01*
X143608028Y-81572786D01*
X143487715Y-81738386D01*
X143394781Y-81920776D01*
X143331522Y-82115465D01*
X143299500Y-82317648D01*
X143299500Y-82522351D01*
X143331522Y-82724534D01*
X143394781Y-82919223D01*
X143441184Y-83010292D01*
X143486638Y-83099501D01*
X143487715Y-83101613D01*
X143608028Y-83267213D01*
X143752786Y-83411971D01*
X143907749Y-83524556D01*
X143918390Y-83532287D01*
X144009840Y-83578883D01*
X144011080Y-83579515D01*
X144061876Y-83627490D01*
X144078671Y-83695311D01*
X144056134Y-83761446D01*
X144011080Y-83800485D01*
X143918386Y-83847715D01*
X143752786Y-83968028D01*
X143608028Y-84112786D01*
X143487715Y-84278386D01*
X143394781Y-84460776D01*
X143331522Y-84655465D01*
X143299500Y-84857648D01*
X143299500Y-85062351D01*
X143331522Y-85264534D01*
X143394781Y-85459223D01*
X143434720Y-85537606D01*
X143477120Y-85620821D01*
X143487715Y-85641613D01*
X143608028Y-85807213D01*
X143752786Y-85951971D01*
X143898899Y-86058126D01*
X143918390Y-86072287D01*
X144009840Y-86118883D01*
X144011080Y-86119515D01*
X144061876Y-86167490D01*
X144078671Y-86235311D01*
X144056134Y-86301446D01*
X144011080Y-86340485D01*
X143918386Y-86387715D01*
X143752786Y-86508028D01*
X143608028Y-86652786D01*
X143487715Y-86818386D01*
X143394781Y-87000776D01*
X143331522Y-87195465D01*
X143299500Y-87397648D01*
X143299500Y-87602351D01*
X143331522Y-87804534D01*
X143394781Y-87999223D01*
X143447328Y-88102351D01*
X143483019Y-88172398D01*
X143487715Y-88181613D01*
X143608028Y-88347213D01*
X143752786Y-88491971D01*
X143872362Y-88578846D01*
X143918390Y-88612287D01*
X144009840Y-88658883D01*
X144011080Y-88659515D01*
X144061876Y-88707490D01*
X144078671Y-88775311D01*
X144056134Y-88841446D01*
X144011080Y-88880485D01*
X143918386Y-88927715D01*
X143752786Y-89048028D01*
X143608028Y-89192786D01*
X143487715Y-89358386D01*
X143394781Y-89540776D01*
X143331522Y-89735465D01*
X143299500Y-89937648D01*
X143299500Y-90142351D01*
X143331522Y-90344534D01*
X143394781Y-90539223D01*
X143458691Y-90664653D01*
X143481490Y-90709397D01*
X143487715Y-90721613D01*
X143608028Y-90887213D01*
X143752786Y-91031971D01*
X143907749Y-91144556D01*
X143918390Y-91152287D01*
X144009840Y-91198883D01*
X144011080Y-91199515D01*
X144061876Y-91247490D01*
X144078671Y-91315311D01*
X144056134Y-91381446D01*
X144011080Y-91420485D01*
X143918386Y-91467715D01*
X143752786Y-91588028D01*
X143608028Y-91732786D01*
X143487715Y-91898386D01*
X143394781Y-92080776D01*
X143331522Y-92275465D01*
X143299500Y-92477648D01*
X143299500Y-92682352D01*
X143303878Y-92709995D01*
X143331522Y-92884534D01*
X143394781Y-93079223D01*
X143444510Y-93176819D01*
X143482510Y-93251399D01*
X143487715Y-93261613D01*
X143608028Y-93427213D01*
X143752786Y-93571971D01*
X143869338Y-93656649D01*
X143918390Y-93692287D01*
X144017545Y-93742809D01*
X144100776Y-93785218D01*
X144100778Y-93785218D01*
X144100781Y-93785220D01*
X144182995Y-93811933D01*
X144295465Y-93848477D01*
X144355073Y-93857918D01*
X144497648Y-93880500D01*
X144497649Y-93880500D01*
X145502351Y-93880500D01*
X145502352Y-93880500D01*
X145704534Y-93848477D01*
X145899219Y-93785220D01*
X146081610Y-93692287D01*
X146201816Y-93604953D01*
X146247213Y-93571971D01*
X146247215Y-93571968D01*
X146247219Y-93571966D01*
X146391966Y-93427219D01*
X146391968Y-93427215D01*
X146391971Y-93427213D01*
X146464007Y-93328062D01*
X146512287Y-93261610D01*
X146605220Y-93079219D01*
X146668477Y-92884534D01*
X146700500Y-92682352D01*
X146700500Y-92477648D01*
X146668477Y-92275466D01*
X146668025Y-92274076D01*
X146605218Y-92080776D01*
X146563997Y-91999876D01*
X146512287Y-91898390D01*
X146437348Y-91795244D01*
X146391971Y-91732786D01*
X146247213Y-91588028D01*
X146081614Y-91467715D01*
X146075006Y-91464348D01*
X145988917Y-91420483D01*
X145938123Y-91372511D01*
X145921328Y-91304690D01*
X145943865Y-91238555D01*
X145988917Y-91199516D01*
X146081610Y-91152287D01*
X146120244Y-91124218D01*
X146247213Y-91031971D01*
X146247215Y-91031968D01*
X146247219Y-91031966D01*
X146391966Y-90887219D01*
X146391968Y-90887215D01*
X146391971Y-90887213D01*
X146448998Y-90808721D01*
X146512287Y-90721610D01*
X146605220Y-90539219D01*
X146668477Y-90344534D01*
X146700500Y-90142352D01*
X146700500Y-89937648D01*
X146668477Y-89735466D01*
X146660004Y-89709390D01*
X146631414Y-89621398D01*
X146605220Y-89540781D01*
X146605218Y-89540778D01*
X146605218Y-89540776D01*
X146571503Y-89474607D01*
X146512287Y-89358390D01*
X146493856Y-89333022D01*
X146391971Y-89192786D01*
X146247213Y-89048028D01*
X146081614Y-88927715D01*
X146068735Y-88921153D01*
X145988917Y-88880483D01*
X145938123Y-88832511D01*
X145921328Y-88764690D01*
X145943865Y-88698555D01*
X145988917Y-88659516D01*
X146081610Y-88612287D01*
X146127638Y-88578846D01*
X146247213Y-88491971D01*
X146247215Y-88491968D01*
X146247219Y-88491966D01*
X146391966Y-88347219D01*
X146391968Y-88347215D01*
X146391971Y-88347213D01*
X146448259Y-88269738D01*
X146512287Y-88181610D01*
X146605220Y-87999219D01*
X146668477Y-87804534D01*
X146700500Y-87602352D01*
X146700500Y-87397648D01*
X146680240Y-87269735D01*
X146668477Y-87195465D01*
X146608309Y-87010288D01*
X146605220Y-87000781D01*
X146605218Y-87000778D01*
X146605218Y-87000776D01*
X146554123Y-86900498D01*
X146512287Y-86818390D01*
X146495134Y-86794781D01*
X146391971Y-86652786D01*
X146247213Y-86508028D01*
X146081614Y-86387715D01*
X146039023Y-86366014D01*
X145988917Y-86340483D01*
X145938123Y-86292511D01*
X145921328Y-86224690D01*
X145943865Y-86158555D01*
X145988917Y-86119516D01*
X146081610Y-86072287D01*
X146138364Y-86031053D01*
X146247213Y-85951971D01*
X146247215Y-85951968D01*
X146247219Y-85951966D01*
X146391966Y-85807219D01*
X146391968Y-85807215D01*
X146391971Y-85807213D01*
X146447879Y-85730261D01*
X146512287Y-85641610D01*
X146605220Y-85459219D01*
X146668477Y-85264534D01*
X146700500Y-85062352D01*
X146700500Y-84857648D01*
X146683450Y-84750000D01*
X146668477Y-84655465D01*
X146614058Y-84487982D01*
X146605220Y-84460781D01*
X146605218Y-84460778D01*
X146605218Y-84460776D01*
X146557936Y-84367982D01*
X146512287Y-84278390D01*
X146503266Y-84265974D01*
X146391971Y-84112786D01*
X146247213Y-83968028D01*
X146081614Y-83847715D01*
X146075006Y-83844348D01*
X145988917Y-83800483D01*
X145938123Y-83752511D01*
X145921328Y-83684690D01*
X145943865Y-83618555D01*
X145988917Y-83579516D01*
X146081610Y-83532287D01*
X146177835Y-83462376D01*
X146247213Y-83411971D01*
X146247215Y-83411968D01*
X146247219Y-83411966D01*
X146391966Y-83267219D01*
X146391968Y-83267215D01*
X146391971Y-83267213D01*
X146497628Y-83121786D01*
X146512287Y-83101610D01*
X146605220Y-82919219D01*
X146668477Y-82724534D01*
X146700500Y-82522352D01*
X146700500Y-82317648D01*
X146670531Y-82128435D01*
X146668477Y-82115465D01*
X146633701Y-82008438D01*
X146605220Y-81920781D01*
X146605218Y-81920778D01*
X146605218Y-81920776D01*
X146571503Y-81854607D01*
X146512287Y-81738390D01*
X146484032Y-81699500D01*
X146391971Y-81572786D01*
X146247213Y-81428028D01*
X146081614Y-81307715D01*
X146075006Y-81304348D01*
X145988917Y-81260483D01*
X145938123Y-81212511D01*
X145921328Y-81144690D01*
X145943865Y-81078555D01*
X145988917Y-81039516D01*
X146081610Y-80992287D01*
X146102770Y-80976913D01*
X146247213Y-80871971D01*
X146247215Y-80871968D01*
X146247219Y-80871966D01*
X146391966Y-80727219D01*
X146391968Y-80727215D01*
X146391971Y-80727213D01*
X146461134Y-80632017D01*
X146512287Y-80561610D01*
X146605220Y-80379219D01*
X146668477Y-80184534D01*
X146700500Y-79982352D01*
X146700500Y-79777648D01*
X146668477Y-79575466D01*
X146605220Y-79380781D01*
X146605218Y-79380778D01*
X146605218Y-79380776D01*
X146571503Y-79314607D01*
X146512287Y-79198390D01*
X146504556Y-79187749D01*
X146391971Y-79032786D01*
X146247219Y-78888034D01*
X146247211Y-78888028D01*
X146153547Y-78819978D01*
X146110882Y-78764649D01*
X146104903Y-78695036D01*
X146137508Y-78633240D01*
X146187426Y-78601955D01*
X146269334Y-78574814D01*
X146418656Y-78482712D01*
X146542712Y-78358656D01*
X146634814Y-78209334D01*
X146689999Y-78042797D01*
X146700500Y-77940009D01*
X146700499Y-77237648D01*
X150919500Y-77237648D01*
X150919500Y-77442351D01*
X150951522Y-77644534D01*
X151014781Y-77839223D01*
X151107715Y-78021613D01*
X151228028Y-78187213D01*
X151372786Y-78331971D01*
X151488014Y-78415687D01*
X151538390Y-78452287D01*
X151629840Y-78498883D01*
X151631080Y-78499515D01*
X151681876Y-78547490D01*
X151698671Y-78615311D01*
X151676134Y-78681446D01*
X151631080Y-78720485D01*
X151538386Y-78767715D01*
X151372786Y-78888028D01*
X151228028Y-79032786D01*
X151107715Y-79198386D01*
X151014781Y-79380776D01*
X150951522Y-79575465D01*
X150919500Y-79777648D01*
X150919500Y-79982351D01*
X150951522Y-80184534D01*
X151014781Y-80379223D01*
X151107715Y-80561613D01*
X151228028Y-80727213D01*
X151372786Y-80871971D01*
X151527749Y-80984556D01*
X151538390Y-80992287D01*
X151629840Y-81038883D01*
X151631080Y-81039515D01*
X151681876Y-81087490D01*
X151698671Y-81155311D01*
X151676134Y-81221446D01*
X151631080Y-81260485D01*
X151538386Y-81307715D01*
X151372786Y-81428028D01*
X151228028Y-81572786D01*
X151107715Y-81738386D01*
X151014781Y-81920776D01*
X150951522Y-82115465D01*
X150919500Y-82317648D01*
X150919500Y-82522351D01*
X150951522Y-82724534D01*
X151014781Y-82919223D01*
X151061184Y-83010292D01*
X151106638Y-83099501D01*
X151107715Y-83101613D01*
X151228028Y-83267213D01*
X151372786Y-83411971D01*
X151527749Y-83524556D01*
X151538390Y-83532287D01*
X151589102Y-83558126D01*
X151631629Y-83579795D01*
X151682425Y-83627770D01*
X151699220Y-83695591D01*
X151676682Y-83761726D01*
X151631629Y-83800765D01*
X151538650Y-83848140D01*
X151373105Y-83968417D01*
X151373104Y-83968417D01*
X151228417Y-84113104D01*
X151228417Y-84113105D01*
X151108140Y-84278650D01*
X151015244Y-84460970D01*
X150952009Y-84655586D01*
X150943391Y-84710000D01*
X152304314Y-84710000D01*
X152299920Y-84714394D01*
X152247259Y-84805606D01*
X152220000Y-84907339D01*
X152220000Y-85012661D01*
X152247259Y-85114394D01*
X152299920Y-85205606D01*
X152304314Y-85210000D01*
X150943391Y-85210000D01*
X150952009Y-85264413D01*
X151015244Y-85459029D01*
X151108140Y-85641349D01*
X151228417Y-85806894D01*
X151228417Y-85806895D01*
X151373104Y-85951582D01*
X151538652Y-86071861D01*
X151631628Y-86119234D01*
X151682425Y-86167208D01*
X151699220Y-86235029D01*
X151676683Y-86301164D01*
X151631630Y-86340203D01*
X151538388Y-86387713D01*
X151372786Y-86508028D01*
X151228028Y-86652786D01*
X151107715Y-86818386D01*
X151014781Y-87000776D01*
X150951522Y-87195465D01*
X150919500Y-87397648D01*
X150919500Y-87602351D01*
X150951522Y-87804534D01*
X151014781Y-87999223D01*
X151067328Y-88102351D01*
X151103019Y-88172398D01*
X151107715Y-88181613D01*
X151228028Y-88347213D01*
X151372786Y-88491971D01*
X151492362Y-88578846D01*
X151538390Y-88612287D01*
X151629840Y-88658883D01*
X151631080Y-88659515D01*
X151681876Y-88707490D01*
X151698671Y-88775311D01*
X151676134Y-88841446D01*
X151631080Y-88880485D01*
X151538386Y-88927715D01*
X151372786Y-89048028D01*
X151228028Y-89192786D01*
X151107715Y-89358386D01*
X151014781Y-89540776D01*
X150951522Y-89735465D01*
X150919500Y-89937648D01*
X150919500Y-90142351D01*
X150951522Y-90344534D01*
X151014781Y-90539223D01*
X151078691Y-90664653D01*
X151101490Y-90709397D01*
X151107715Y-90721613D01*
X151228028Y-90887213D01*
X151372786Y-91031971D01*
X151527749Y-91144556D01*
X151538390Y-91152287D01*
X151629840Y-91198883D01*
X151631080Y-91199515D01*
X151681876Y-91247490D01*
X151698671Y-91315311D01*
X151676134Y-91381446D01*
X151631080Y-91420485D01*
X151538386Y-91467715D01*
X151372786Y-91588028D01*
X151228028Y-91732786D01*
X151107715Y-91898386D01*
X151014781Y-92080776D01*
X150951522Y-92275465D01*
X150919500Y-92477648D01*
X150919500Y-92682352D01*
X150923878Y-92709995D01*
X150951522Y-92884534D01*
X151014781Y-93079223D01*
X151064510Y-93176819D01*
X151102510Y-93251399D01*
X151107715Y-93261613D01*
X151228028Y-93427213D01*
X151372786Y-93571971D01*
X151489338Y-93656649D01*
X151538390Y-93692287D01*
X151637545Y-93742809D01*
X151720776Y-93785218D01*
X151720778Y-93785218D01*
X151720781Y-93785220D01*
X151802995Y-93811933D01*
X151915465Y-93848477D01*
X151975073Y-93857918D01*
X152117648Y-93880500D01*
X152117649Y-93880500D01*
X153122351Y-93880500D01*
X153122352Y-93880500D01*
X153324534Y-93848477D01*
X153519219Y-93785220D01*
X153701610Y-93692287D01*
X153821816Y-93604953D01*
X153867213Y-93571971D01*
X153867215Y-93571968D01*
X153867219Y-93571966D01*
X154011966Y-93427219D01*
X154011968Y-93427215D01*
X154011971Y-93427213D01*
X154084007Y-93328062D01*
X154132287Y-93261610D01*
X154225220Y-93079219D01*
X154288477Y-92884534D01*
X154320500Y-92682352D01*
X154320500Y-92477648D01*
X154288477Y-92275466D01*
X154288025Y-92274076D01*
X154225218Y-92080776D01*
X154183997Y-91999876D01*
X154132287Y-91898390D01*
X154057348Y-91795244D01*
X154011971Y-91732786D01*
X153867213Y-91588028D01*
X153701614Y-91467715D01*
X153695006Y-91464348D01*
X153608917Y-91420483D01*
X153558123Y-91372511D01*
X153541328Y-91304690D01*
X153563865Y-91238555D01*
X153608917Y-91199516D01*
X153701610Y-91152287D01*
X153740244Y-91124218D01*
X153867213Y-91031971D01*
X153867215Y-91031968D01*
X153867219Y-91031966D01*
X154011966Y-90887219D01*
X154011968Y-90887215D01*
X154011971Y-90887213D01*
X154068998Y-90808721D01*
X154132287Y-90721610D01*
X154225220Y-90539219D01*
X154288477Y-90344534D01*
X154320500Y-90142352D01*
X154320500Y-89937648D01*
X154317997Y-89921847D01*
X154317887Y-89921153D01*
X156699500Y-89921153D01*
X156699500Y-90078846D01*
X156730261Y-90233489D01*
X156730264Y-90233501D01*
X156790602Y-90379172D01*
X156790609Y-90379185D01*
X156878602Y-90510874D01*
X156899480Y-90577551D01*
X156899500Y-90579765D01*
X156899500Y-104020234D01*
X156879815Y-104087273D01*
X156878602Y-104089125D01*
X156790609Y-104220814D01*
X156790602Y-104220827D01*
X156730264Y-104366498D01*
X156730261Y-104366510D01*
X156699500Y-104521153D01*
X156699500Y-104678846D01*
X156730261Y-104833489D01*
X156730264Y-104833501D01*
X156790602Y-104979172D01*
X156790609Y-104979185D01*
X156878210Y-105110288D01*
X156878213Y-105110292D01*
X156989707Y-105221786D01*
X156989711Y-105221789D01*
X157120814Y-105309390D01*
X157120827Y-105309397D01*
X157243213Y-105360090D01*
X157266503Y-105369737D01*
X157421153Y-105400499D01*
X157421156Y-105400500D01*
X157421158Y-105400500D01*
X157578844Y-105400500D01*
X157578845Y-105400499D01*
X157733497Y-105369737D01*
X157879179Y-105309394D01*
X158010289Y-105221789D01*
X158121789Y-105110289D01*
X158209394Y-104979179D01*
X158252363Y-104875441D01*
X187979500Y-104875441D01*
X187979500Y-105124558D01*
X187979501Y-105124575D01*
X188012017Y-105371561D01*
X188076498Y-105612207D01*
X188171830Y-105842361D01*
X188171837Y-105842376D01*
X188296400Y-106058126D01*
X188448060Y-106255774D01*
X188448066Y-106255781D01*
X188624218Y-106431933D01*
X188624225Y-106431939D01*
X188821873Y-106583599D01*
X189037623Y-106708162D01*
X189037638Y-106708169D01*
X189136825Y-106749253D01*
X189267793Y-106803502D01*
X189508435Y-106867982D01*
X189755435Y-106900500D01*
X189755442Y-106900500D01*
X190004558Y-106900500D01*
X190004565Y-106900500D01*
X190251565Y-106867982D01*
X190492207Y-106803502D01*
X190722373Y-106708164D01*
X190938127Y-106583599D01*
X191135776Y-106431938D01*
X191311938Y-106255776D01*
X191463599Y-106058127D01*
X191588164Y-105842373D01*
X191683502Y-105612207D01*
X191747982Y-105371565D01*
X191780500Y-105124565D01*
X191780500Y-104875441D01*
X203219500Y-104875441D01*
X203219500Y-105124558D01*
X203219501Y-105124575D01*
X203252017Y-105371561D01*
X203316498Y-105612207D01*
X203411830Y-105842361D01*
X203411837Y-105842376D01*
X203536400Y-106058126D01*
X203688060Y-106255774D01*
X203688066Y-106255781D01*
X203864218Y-106431933D01*
X203864225Y-106431939D01*
X204061873Y-106583599D01*
X204277623Y-106708162D01*
X204277638Y-106708169D01*
X204376825Y-106749253D01*
X204507793Y-106803502D01*
X204748435Y-106867982D01*
X204995435Y-106900500D01*
X204995442Y-106900500D01*
X205244558Y-106900500D01*
X205244565Y-106900500D01*
X205491565Y-106867982D01*
X205732207Y-106803502D01*
X205962373Y-106708164D01*
X206178127Y-106583599D01*
X206375776Y-106431938D01*
X206551938Y-106255776D01*
X206703599Y-106058127D01*
X206828164Y-105842373D01*
X206923502Y-105612207D01*
X206987982Y-105371565D01*
X207020500Y-105124565D01*
X207020500Y-104889778D01*
X212329500Y-104889778D01*
X212329500Y-105110222D01*
X212329511Y-105110289D01*
X212363985Y-105327952D01*
X212432103Y-105537603D01*
X212432104Y-105537606D01*
X212500122Y-105671096D01*
X212519636Y-105709394D01*
X212532187Y-105734025D01*
X212661752Y-105912358D01*
X212661756Y-105912363D01*
X212817636Y-106068243D01*
X212817641Y-106068247D01*
X212973192Y-106181260D01*
X212995978Y-106197815D01*
X213112501Y-106257187D01*
X213192393Y-106297895D01*
X213192396Y-106297896D01*
X213297221Y-106331955D01*
X213402049Y-106366015D01*
X213619778Y-106400500D01*
X213619779Y-106400500D01*
X213840221Y-106400500D01*
X213840222Y-106400500D01*
X214057951Y-106366015D01*
X214267606Y-106297895D01*
X214464022Y-106197815D01*
X214642365Y-106068242D01*
X214692924Y-106017682D01*
X214754245Y-105984198D01*
X214823936Y-105989182D01*
X214879870Y-106031053D01*
X214896786Y-106062030D01*
X214926646Y-106142087D01*
X214926649Y-106142093D01*
X215012809Y-106257187D01*
X215012812Y-106257190D01*
X215127906Y-106343350D01*
X215127913Y-106343354D01*
X215262620Y-106393596D01*
X215262627Y-106393598D01*
X215322155Y-106399999D01*
X215322172Y-106400000D01*
X216020000Y-106400000D01*
X216020000Y-105375277D01*
X216096306Y-105419333D01*
X216210756Y-105450000D01*
X216329244Y-105450000D01*
X216443694Y-105419333D01*
X216520000Y-105375277D01*
X216520000Y-106400000D01*
X217217828Y-106400000D01*
X217217844Y-106399999D01*
X217277372Y-106393598D01*
X217277379Y-106393596D01*
X217412086Y-106343354D01*
X217412093Y-106343350D01*
X217527187Y-106257190D01*
X217527190Y-106257187D01*
X217613350Y-106142093D01*
X217613354Y-106142086D01*
X217663596Y-106007379D01*
X217663598Y-106007372D01*
X217669999Y-105947844D01*
X217670000Y-105947827D01*
X217670000Y-105250000D01*
X216645278Y-105250000D01*
X216689333Y-105173694D01*
X216720000Y-105059244D01*
X216720000Y-104940756D01*
X216689333Y-104826306D01*
X216645278Y-104750000D01*
X217670000Y-104750000D01*
X217670000Y-104052172D01*
X217669999Y-104052155D01*
X217663598Y-103992627D01*
X217663596Y-103992620D01*
X217613354Y-103857913D01*
X217613350Y-103857906D01*
X217527190Y-103742812D01*
X217527187Y-103742809D01*
X217412093Y-103656649D01*
X217412086Y-103656645D01*
X217277379Y-103606403D01*
X217277372Y-103606401D01*
X217217844Y-103600000D01*
X216520000Y-103600000D01*
X216520000Y-104624722D01*
X216443694Y-104580667D01*
X216329244Y-104550000D01*
X216210756Y-104550000D01*
X216096306Y-104580667D01*
X216020000Y-104624722D01*
X216020000Y-103600000D01*
X215322155Y-103600000D01*
X215262627Y-103606401D01*
X215262620Y-103606403D01*
X215127913Y-103656645D01*
X215127906Y-103656649D01*
X215012812Y-103742809D01*
X215012809Y-103742812D01*
X214926649Y-103857906D01*
X214926643Y-103857918D01*
X214896785Y-103937969D01*
X214854914Y-103993903D01*
X214789449Y-104018319D01*
X214721176Y-104003467D01*
X214692923Y-103982316D01*
X214642363Y-103931756D01*
X214642358Y-103931752D01*
X214464025Y-103802187D01*
X214464024Y-103802186D01*
X214464022Y-103802185D01*
X214401096Y-103770122D01*
X214267606Y-103702104D01*
X214267603Y-103702103D01*
X214057952Y-103633985D01*
X213949086Y-103616742D01*
X213840222Y-103599500D01*
X213619778Y-103599500D01*
X213547201Y-103610995D01*
X213402047Y-103633985D01*
X213192396Y-103702103D01*
X213192393Y-103702104D01*
X212995974Y-103802187D01*
X212817641Y-103931752D01*
X212817636Y-103931756D01*
X212661756Y-104087636D01*
X212661752Y-104087641D01*
X212532187Y-104265974D01*
X212432104Y-104462393D01*
X212432103Y-104462396D01*
X212363985Y-104672047D01*
X212362908Y-104678846D01*
X212329500Y-104889778D01*
X207020500Y-104889778D01*
X207020500Y-104875435D01*
X206987982Y-104628435D01*
X206923502Y-104387793D01*
X206828164Y-104157627D01*
X206787754Y-104087635D01*
X206703599Y-103941873D01*
X206551939Y-103744225D01*
X206551933Y-103744218D01*
X206375781Y-103568066D01*
X206375774Y-103568060D01*
X206178126Y-103416400D01*
X205962376Y-103291837D01*
X205962361Y-103291830D01*
X205732207Y-103196498D01*
X205491561Y-103132017D01*
X205244575Y-103099501D01*
X205244570Y-103099500D01*
X205244565Y-103099500D01*
X204995435Y-103099500D01*
X204995429Y-103099500D01*
X204995424Y-103099501D01*
X204748438Y-103132017D01*
X204507792Y-103196498D01*
X204277638Y-103291830D01*
X204277623Y-103291837D01*
X204061873Y-103416400D01*
X203864225Y-103568060D01*
X203864218Y-103568066D01*
X203688066Y-103744218D01*
X203688060Y-103744225D01*
X203536400Y-103941873D01*
X203411837Y-104157623D01*
X203411830Y-104157638D01*
X203316498Y-104387792D01*
X203252017Y-104628438D01*
X203219501Y-104875424D01*
X203219500Y-104875441D01*
X191780500Y-104875441D01*
X191780500Y-104875435D01*
X191747982Y-104628435D01*
X191683502Y-104387793D01*
X191588164Y-104157627D01*
X191547754Y-104087635D01*
X191463599Y-103941873D01*
X191311939Y-103744225D01*
X191311933Y-103744218D01*
X191135781Y-103568066D01*
X191135774Y-103568060D01*
X190938126Y-103416400D01*
X190722376Y-103291837D01*
X190722361Y-103291830D01*
X190492207Y-103196498D01*
X190251561Y-103132017D01*
X190004575Y-103099501D01*
X190004570Y-103099500D01*
X190004565Y-103099500D01*
X189755435Y-103099500D01*
X189755429Y-103099500D01*
X189755424Y-103099501D01*
X189508438Y-103132017D01*
X189267792Y-103196498D01*
X189037638Y-103291830D01*
X189037623Y-103291837D01*
X188821873Y-103416400D01*
X188624225Y-103568060D01*
X188624218Y-103568066D01*
X188448066Y-103744218D01*
X188448060Y-103744225D01*
X188296400Y-103941873D01*
X188171837Y-104157623D01*
X188171830Y-104157638D01*
X188076498Y-104387792D01*
X188012017Y-104628438D01*
X187979501Y-104875424D01*
X187979500Y-104875441D01*
X158252363Y-104875441D01*
X158269737Y-104833497D01*
X158300500Y-104678842D01*
X158300500Y-104521158D01*
X158300500Y-104521155D01*
X158300499Y-104521153D01*
X158273972Y-104387793D01*
X158269737Y-104366503D01*
X158269735Y-104366498D01*
X158209397Y-104220827D01*
X158209390Y-104220814D01*
X158121398Y-104089125D01*
X158100520Y-104022447D01*
X158100500Y-104020234D01*
X158100500Y-94635466D01*
X162600000Y-94635466D01*
X162600000Y-94884533D01*
X162632508Y-95131463D01*
X162696973Y-95372049D01*
X162792283Y-95602148D01*
X162792288Y-95602159D01*
X162916813Y-95817841D01*
X162916819Y-95817849D01*
X162991400Y-95915045D01*
X163860689Y-95045756D01*
X163879668Y-95091574D01*
X163956274Y-95206224D01*
X164053776Y-95303726D01*
X164168426Y-95380332D01*
X164214242Y-95399309D01*
X163344953Y-96268598D01*
X163442150Y-96343180D01*
X163442158Y-96343186D01*
X163657840Y-96467711D01*
X163657851Y-96467716D01*
X163887950Y-96563026D01*
X164128536Y-96627491D01*
X164375466Y-96660000D01*
X164624534Y-96660000D01*
X164871463Y-96627491D01*
X165112049Y-96563026D01*
X165342148Y-96467716D01*
X165342159Y-96467711D01*
X165557855Y-96343178D01*
X165655045Y-96268600D01*
X165655045Y-96268597D01*
X164785757Y-95399309D01*
X164831574Y-95380332D01*
X164946224Y-95303726D01*
X165043726Y-95206224D01*
X165120332Y-95091574D01*
X165139309Y-95045757D01*
X166008597Y-95915045D01*
X166008600Y-95915045D01*
X166083178Y-95817855D01*
X166207711Y-95602159D01*
X166207716Y-95602148D01*
X166303026Y-95372049D01*
X166367491Y-95131463D01*
X166400000Y-94884533D01*
X166400000Y-94635466D01*
X166399997Y-94635441D01*
X173099500Y-94635441D01*
X173099500Y-94884558D01*
X173099501Y-94884575D01*
X173132004Y-95131463D01*
X173132018Y-95131565D01*
X173152023Y-95206224D01*
X173196498Y-95372207D01*
X173291830Y-95602361D01*
X173291837Y-95602376D01*
X173416400Y-95818126D01*
X173568060Y-96015774D01*
X173568066Y-96015781D01*
X173744218Y-96191933D01*
X173744225Y-96191939D01*
X173941873Y-96343599D01*
X174157623Y-96468162D01*
X174157638Y-96468169D01*
X174256825Y-96509253D01*
X174387793Y-96563502D01*
X174628435Y-96627982D01*
X174875435Y-96660500D01*
X174875442Y-96660500D01*
X175124558Y-96660500D01*
X175124565Y-96660500D01*
X175371565Y-96627982D01*
X175612207Y-96563502D01*
X175842373Y-96468164D01*
X176058127Y-96343599D01*
X176255776Y-96191938D01*
X176431938Y-96015776D01*
X176583599Y-95818127D01*
X176708164Y-95602373D01*
X176803502Y-95372207D01*
X176867982Y-95131565D01*
X176900500Y-94884565D01*
X176900500Y-94875441D01*
X187979500Y-94875441D01*
X187979500Y-95124558D01*
X187979501Y-95124575D01*
X188012017Y-95371561D01*
X188076498Y-95612207D01*
X188171830Y-95842361D01*
X188171837Y-95842376D01*
X188296400Y-96058126D01*
X188448060Y-96255774D01*
X188448066Y-96255781D01*
X188624218Y-96431933D01*
X188624225Y-96431939D01*
X188821873Y-96583599D01*
X189037623Y-96708162D01*
X189037638Y-96708169D01*
X189136825Y-96749253D01*
X189267793Y-96803502D01*
X189508435Y-96867982D01*
X189755435Y-96900500D01*
X189755442Y-96900500D01*
X190004558Y-96900500D01*
X190004565Y-96900500D01*
X190251565Y-96867982D01*
X190492207Y-96803502D01*
X190722373Y-96708164D01*
X190938127Y-96583599D01*
X191135776Y-96431938D01*
X191311938Y-96255776D01*
X191463599Y-96058127D01*
X191588164Y-95842373D01*
X191683502Y-95612207D01*
X191747982Y-95371565D01*
X191780500Y-95124565D01*
X191780500Y-94875441D01*
X203219500Y-94875441D01*
X203219500Y-95124558D01*
X203219501Y-95124575D01*
X203252017Y-95371561D01*
X203316498Y-95612207D01*
X203411830Y-95842361D01*
X203411837Y-95842376D01*
X203536400Y-96058126D01*
X203688060Y-96255774D01*
X203688066Y-96255781D01*
X203864218Y-96431933D01*
X203864225Y-96431939D01*
X204061873Y-96583599D01*
X204277623Y-96708162D01*
X204277638Y-96708169D01*
X204376825Y-96749253D01*
X204507793Y-96803502D01*
X204748435Y-96867982D01*
X204995435Y-96900500D01*
X204995442Y-96900500D01*
X205244558Y-96900500D01*
X205244565Y-96900500D01*
X205491565Y-96867982D01*
X205732207Y-96803502D01*
X205962373Y-96708164D01*
X206178127Y-96583599D01*
X206375776Y-96431938D01*
X206551938Y-96255776D01*
X206703599Y-96058127D01*
X206828164Y-95842373D01*
X206923502Y-95612207D01*
X206987982Y-95371565D01*
X207020500Y-95124565D01*
X207020500Y-94889778D01*
X212334500Y-94889778D01*
X212334500Y-95110222D01*
X212344553Y-95173694D01*
X212368985Y-95327952D01*
X212437103Y-95537603D01*
X212437104Y-95537606D01*
X212487128Y-95635781D01*
X212530040Y-95720000D01*
X212537187Y-95734025D01*
X212666752Y-95912358D01*
X212666756Y-95912363D01*
X212822636Y-96068243D01*
X212822641Y-96068247D01*
X212978192Y-96181260D01*
X213000978Y-96197815D01*
X213117501Y-96257187D01*
X213197393Y-96297895D01*
X213197396Y-96297896D01*
X213302221Y-96331955D01*
X213407049Y-96366015D01*
X213624778Y-96400500D01*
X213624779Y-96400500D01*
X213845221Y-96400500D01*
X213845222Y-96400500D01*
X214062951Y-96366015D01*
X214272606Y-96297895D01*
X214469022Y-96197815D01*
X214647365Y-96068242D01*
X214697924Y-96017682D01*
X214759245Y-95984198D01*
X214828936Y-95989182D01*
X214884870Y-96031053D01*
X214901786Y-96062030D01*
X214931646Y-96142087D01*
X214931649Y-96142093D01*
X215017809Y-96257187D01*
X215017812Y-96257190D01*
X215132906Y-96343350D01*
X215132913Y-96343354D01*
X215267620Y-96393596D01*
X215267627Y-96393598D01*
X215327155Y-96399999D01*
X215327172Y-96400000D01*
X216025000Y-96400000D01*
X216025000Y-95375277D01*
X216101306Y-95419333D01*
X216215756Y-95450000D01*
X216334244Y-95450000D01*
X216448694Y-95419333D01*
X216525000Y-95375277D01*
X216525000Y-96400000D01*
X217222828Y-96400000D01*
X217222844Y-96399999D01*
X217282372Y-96393598D01*
X217282379Y-96393596D01*
X217417086Y-96343354D01*
X217417093Y-96343350D01*
X217532187Y-96257190D01*
X217532190Y-96257187D01*
X217618350Y-96142093D01*
X217618354Y-96142086D01*
X217668596Y-96007379D01*
X217668598Y-96007372D01*
X217674999Y-95947844D01*
X217675000Y-95947827D01*
X217675000Y-95250000D01*
X216650278Y-95250000D01*
X216694333Y-95173694D01*
X216725000Y-95059244D01*
X216725000Y-94940756D01*
X216694333Y-94826306D01*
X216650278Y-94750000D01*
X217675000Y-94750000D01*
X217675000Y-94052172D01*
X217674999Y-94052155D01*
X217668598Y-93992627D01*
X217668596Y-93992620D01*
X217618354Y-93857913D01*
X217618350Y-93857906D01*
X217532190Y-93742812D01*
X217532187Y-93742809D01*
X217417093Y-93656649D01*
X217417086Y-93656645D01*
X217282379Y-93606403D01*
X217282372Y-93606401D01*
X217222844Y-93600000D01*
X216525000Y-93600000D01*
X216525000Y-94624722D01*
X216448694Y-94580667D01*
X216334244Y-94550000D01*
X216215756Y-94550000D01*
X216101306Y-94580667D01*
X216025000Y-94624722D01*
X216025000Y-93600000D01*
X215327155Y-93600000D01*
X215267627Y-93606401D01*
X215267620Y-93606403D01*
X215132913Y-93656645D01*
X215132906Y-93656649D01*
X215017812Y-93742809D01*
X215017809Y-93742812D01*
X214931649Y-93857906D01*
X214931643Y-93857918D01*
X214901785Y-93937969D01*
X214859914Y-93993903D01*
X214794449Y-94018319D01*
X214726176Y-94003467D01*
X214697923Y-93982316D01*
X214647363Y-93931756D01*
X214647358Y-93931752D01*
X214469025Y-93802187D01*
X214469024Y-93802186D01*
X214469022Y-93802185D01*
X214385579Y-93759668D01*
X214272606Y-93702104D01*
X214272603Y-93702103D01*
X214062952Y-93633985D01*
X213954086Y-93616742D01*
X213845222Y-93599500D01*
X213624778Y-93599500D01*
X213552201Y-93610995D01*
X213407047Y-93633985D01*
X213197396Y-93702103D01*
X213197393Y-93702104D01*
X213000974Y-93802187D01*
X212822641Y-93931752D01*
X212822636Y-93931756D01*
X212666756Y-94087636D01*
X212666752Y-94087641D01*
X212537187Y-94265974D01*
X212437104Y-94462393D01*
X212437103Y-94462396D01*
X212368985Y-94672047D01*
X212356639Y-94750000D01*
X212334500Y-94889778D01*
X207020500Y-94889778D01*
X207020500Y-94875435D01*
X206987982Y-94628435D01*
X206923502Y-94387793D01*
X206865590Y-94247982D01*
X206828169Y-94157638D01*
X206828162Y-94157623D01*
X206703599Y-93941873D01*
X206551939Y-93744225D01*
X206551933Y-93744218D01*
X206375781Y-93568066D01*
X206375774Y-93568060D01*
X206178126Y-93416400D01*
X205962376Y-93291837D01*
X205962361Y-93291830D01*
X205732207Y-93196498D01*
X205491561Y-93132017D01*
X205244575Y-93099501D01*
X205244570Y-93099500D01*
X205244565Y-93099500D01*
X204995435Y-93099500D01*
X204995429Y-93099500D01*
X204995424Y-93099501D01*
X204748438Y-93132017D01*
X204507792Y-93196498D01*
X204277638Y-93291830D01*
X204277623Y-93291837D01*
X204061873Y-93416400D01*
X203864225Y-93568060D01*
X203864218Y-93568066D01*
X203688066Y-93744218D01*
X203688060Y-93744225D01*
X203536400Y-93941873D01*
X203411837Y-94157623D01*
X203411830Y-94157638D01*
X203316498Y-94387792D01*
X203252017Y-94628438D01*
X203219501Y-94875424D01*
X203219500Y-94875441D01*
X191780500Y-94875441D01*
X191780500Y-94875435D01*
X191747982Y-94628435D01*
X191683502Y-94387793D01*
X191625590Y-94247982D01*
X191588169Y-94157638D01*
X191588162Y-94157623D01*
X191463599Y-93941873D01*
X191311939Y-93744225D01*
X191311933Y-93744218D01*
X191135781Y-93568066D01*
X191135774Y-93568060D01*
X190938126Y-93416400D01*
X190722376Y-93291837D01*
X190722361Y-93291830D01*
X190492207Y-93196498D01*
X190251561Y-93132017D01*
X190004575Y-93099501D01*
X190004570Y-93099500D01*
X190004565Y-93099500D01*
X189755435Y-93099500D01*
X189755429Y-93099500D01*
X189755424Y-93099501D01*
X189508438Y-93132017D01*
X189267792Y-93196498D01*
X189037638Y-93291830D01*
X189037623Y-93291837D01*
X188821873Y-93416400D01*
X188624225Y-93568060D01*
X188624218Y-93568066D01*
X188448066Y-93744218D01*
X188448060Y-93744225D01*
X188296400Y-93941873D01*
X188171837Y-94157623D01*
X188171830Y-94157638D01*
X188076498Y-94387792D01*
X188012017Y-94628438D01*
X187979501Y-94875424D01*
X187979500Y-94875441D01*
X176900500Y-94875441D01*
X176900500Y-94635435D01*
X176867982Y-94388435D01*
X176803502Y-94147793D01*
X176734959Y-93982316D01*
X176708169Y-93917638D01*
X176708162Y-93917623D01*
X176583599Y-93701873D01*
X176431939Y-93504225D01*
X176431933Y-93504218D01*
X176255781Y-93328066D01*
X176255774Y-93328060D01*
X176058126Y-93176400D01*
X175842376Y-93051837D01*
X175842361Y-93051830D01*
X175612207Y-92956498D01*
X175580738Y-92948066D01*
X175371565Y-92892018D01*
X175371564Y-92892017D01*
X175371561Y-92892017D01*
X175124575Y-92859501D01*
X175124570Y-92859500D01*
X175124565Y-92859500D01*
X174875435Y-92859500D01*
X174875429Y-92859500D01*
X174875424Y-92859501D01*
X174628438Y-92892017D01*
X174387792Y-92956498D01*
X174157638Y-93051830D01*
X174157623Y-93051837D01*
X173941873Y-93176400D01*
X173744225Y-93328060D01*
X173744218Y-93328066D01*
X173568066Y-93504218D01*
X173568060Y-93504225D01*
X173416400Y-93701873D01*
X173291837Y-93917623D01*
X173291830Y-93917638D01*
X173196498Y-94147792D01*
X173132017Y-94388438D01*
X173099501Y-94635424D01*
X173099500Y-94635441D01*
X166399997Y-94635441D01*
X166367491Y-94388536D01*
X166303026Y-94147950D01*
X166207716Y-93917851D01*
X166207711Y-93917840D01*
X166083186Y-93702158D01*
X166083180Y-93702150D01*
X166008598Y-93604953D01*
X165139309Y-94474242D01*
X165120332Y-94428426D01*
X165043726Y-94313776D01*
X164946224Y-94216274D01*
X164831574Y-94139668D01*
X164785755Y-94120689D01*
X165655045Y-93251400D01*
X165557849Y-93176819D01*
X165557841Y-93176813D01*
X165342159Y-93052288D01*
X165342148Y-93052283D01*
X165112049Y-92956973D01*
X164871463Y-92892508D01*
X164624534Y-92860000D01*
X164375466Y-92860000D01*
X164128536Y-92892508D01*
X163887950Y-92956973D01*
X163657851Y-93052283D01*
X163657847Y-93052285D01*
X163442143Y-93176823D01*
X163344953Y-93251399D01*
X163344953Y-93251400D01*
X164214243Y-94120690D01*
X164168426Y-94139668D01*
X164053776Y-94216274D01*
X163956274Y-94313776D01*
X163879668Y-94428426D01*
X163860690Y-94474243D01*
X162991400Y-93604953D01*
X162991399Y-93604953D01*
X162916823Y-93702143D01*
X162792285Y-93917847D01*
X162792283Y-93917851D01*
X162696973Y-94147950D01*
X162632508Y-94388536D01*
X162600000Y-94635466D01*
X158100500Y-94635466D01*
X158100500Y-90579765D01*
X158120185Y-90512726D01*
X158121398Y-90510874D01*
X158142362Y-90479500D01*
X158209394Y-90379179D01*
X158269737Y-90233497D01*
X158300500Y-90078842D01*
X158300500Y-89921158D01*
X158300500Y-89921155D01*
X158300499Y-89921153D01*
X158269738Y-89766510D01*
X158269737Y-89766503D01*
X158209794Y-89621786D01*
X158209397Y-89620827D01*
X158209390Y-89620814D01*
X158121789Y-89489711D01*
X158121786Y-89489707D01*
X158010292Y-89378213D01*
X158010288Y-89378210D01*
X157879185Y-89290609D01*
X157879172Y-89290602D01*
X157733501Y-89230264D01*
X157733489Y-89230261D01*
X157578845Y-89199500D01*
X157578842Y-89199500D01*
X157421158Y-89199500D01*
X157421155Y-89199500D01*
X157266510Y-89230261D01*
X157266498Y-89230264D01*
X157120827Y-89290602D01*
X157120814Y-89290609D01*
X156989711Y-89378210D01*
X156989707Y-89378213D01*
X156878213Y-89489707D01*
X156878210Y-89489711D01*
X156790609Y-89620814D01*
X156790602Y-89620827D01*
X156730264Y-89766498D01*
X156730261Y-89766510D01*
X156699500Y-89921153D01*
X154317887Y-89921153D01*
X154288477Y-89735465D01*
X154251414Y-89621398D01*
X154225220Y-89540781D01*
X154225218Y-89540778D01*
X154225218Y-89540776D01*
X154191503Y-89474607D01*
X154132287Y-89358390D01*
X154113856Y-89333022D01*
X154011971Y-89192786D01*
X153867213Y-89048028D01*
X153701614Y-88927715D01*
X153688735Y-88921153D01*
X153608917Y-88880483D01*
X153558123Y-88832511D01*
X153541328Y-88764690D01*
X153563865Y-88698555D01*
X153608917Y-88659516D01*
X153701610Y-88612287D01*
X153747638Y-88578846D01*
X153867213Y-88491971D01*
X153867215Y-88491968D01*
X153867219Y-88491966D01*
X153938032Y-88421153D01*
X160699500Y-88421153D01*
X160699500Y-88578846D01*
X160730261Y-88733489D01*
X160730264Y-88733501D01*
X160790602Y-88879172D01*
X160790609Y-88879185D01*
X160878210Y-89010288D01*
X160878213Y-89010292D01*
X160989707Y-89121786D01*
X160989711Y-89121789D01*
X161120814Y-89209390D01*
X161120827Y-89209397D01*
X161263461Y-89268477D01*
X161266503Y-89269737D01*
X161421158Y-89300500D01*
X161421847Y-89300637D01*
X161483758Y-89333022D01*
X161485337Y-89334573D01*
X161631284Y-89480520D01*
X161631286Y-89480521D01*
X161631290Y-89480524D01*
X161735651Y-89540776D01*
X161768216Y-89559577D01*
X161920943Y-89600501D01*
X161920945Y-89600501D01*
X162086654Y-89600501D01*
X162086670Y-89600500D01*
X170020234Y-89600500D01*
X170087273Y-89620185D01*
X170089125Y-89621398D01*
X170220814Y-89709390D01*
X170220827Y-89709397D01*
X170358683Y-89766498D01*
X170366503Y-89769737D01*
X170521153Y-89800499D01*
X170521156Y-89800500D01*
X170521158Y-89800500D01*
X170678844Y-89800500D01*
X170678845Y-89800499D01*
X170833497Y-89769737D01*
X170979179Y-89709394D01*
X171110289Y-89621789D01*
X171221789Y-89510289D01*
X171309394Y-89379179D01*
X171369737Y-89233497D01*
X171400500Y-89078842D01*
X171400500Y-88921158D01*
X171400500Y-88921155D01*
X171400499Y-88921153D01*
X171369737Y-88766503D01*
X171344353Y-88705220D01*
X171309397Y-88620827D01*
X171309390Y-88620814D01*
X171221789Y-88489711D01*
X171221786Y-88489707D01*
X171110292Y-88378213D01*
X171110284Y-88378207D01*
X171072712Y-88353102D01*
X171027906Y-88299490D01*
X171019199Y-88230165D01*
X171049353Y-88167138D01*
X171072712Y-88146898D01*
X171099279Y-88129145D01*
X171110289Y-88121789D01*
X171221789Y-88010289D01*
X171309394Y-87879179D01*
X171369737Y-87733497D01*
X171400500Y-87578842D01*
X171400500Y-87421158D01*
X171400500Y-87421155D01*
X171400499Y-87421153D01*
X171396192Y-87399500D01*
X171369737Y-87266503D01*
X171369735Y-87266498D01*
X171309397Y-87120827D01*
X171309390Y-87120814D01*
X171221789Y-86989711D01*
X171221786Y-86989707D01*
X171110292Y-86878213D01*
X171110288Y-86878210D01*
X170979185Y-86790609D01*
X170979172Y-86790602D01*
X170833501Y-86730264D01*
X170833489Y-86730261D01*
X170678845Y-86699500D01*
X170678842Y-86699500D01*
X170521158Y-86699500D01*
X170521155Y-86699500D01*
X170366510Y-86730261D01*
X170366498Y-86730264D01*
X170220827Y-86790602D01*
X170220814Y-86790609D01*
X170089125Y-86878602D01*
X170022447Y-86899480D01*
X170020234Y-86899500D01*
X169079766Y-86899500D01*
X169012727Y-86879815D01*
X169010875Y-86878602D01*
X168879185Y-86790609D01*
X168879172Y-86790602D01*
X168733501Y-86730264D01*
X168733489Y-86730261D01*
X168578845Y-86699500D01*
X168578842Y-86699500D01*
X168421158Y-86699500D01*
X168421155Y-86699500D01*
X168266510Y-86730261D01*
X168266498Y-86730264D01*
X168120827Y-86790602D01*
X168120814Y-86790609D01*
X167989711Y-86878210D01*
X167989707Y-86878213D01*
X167878213Y-86989707D01*
X167878210Y-86989711D01*
X167790609Y-87120814D01*
X167790602Y-87120827D01*
X167730264Y-87266498D01*
X167730261Y-87266510D01*
X167699500Y-87421153D01*
X167699500Y-87578846D01*
X167730261Y-87733489D01*
X167730264Y-87733501D01*
X167790602Y-87879172D01*
X167790609Y-87879185D01*
X167878210Y-88010288D01*
X167878213Y-88010292D01*
X167989707Y-88121786D01*
X167989711Y-88121789D01*
X168065452Y-88172398D01*
X168110257Y-88226010D01*
X168118964Y-88295335D01*
X168088810Y-88358363D01*
X168029366Y-88395082D01*
X167996561Y-88399500D01*
X162397956Y-88399500D01*
X162330917Y-88379815D01*
X162285162Y-88327011D01*
X162276339Y-88299691D01*
X162269738Y-88266510D01*
X162269737Y-88266503D01*
X162256062Y-88233489D01*
X162209397Y-88120827D01*
X162209390Y-88120814D01*
X162121789Y-87989711D01*
X162121786Y-87989707D01*
X162010292Y-87878213D01*
X162010288Y-87878210D01*
X161879185Y-87790609D01*
X161879172Y-87790602D01*
X161733501Y-87730264D01*
X161733489Y-87730261D01*
X161578845Y-87699500D01*
X161578842Y-87699500D01*
X161421158Y-87699500D01*
X161421155Y-87699500D01*
X161266510Y-87730261D01*
X161266498Y-87730264D01*
X161120827Y-87790602D01*
X161120814Y-87790609D01*
X160989711Y-87878210D01*
X160989707Y-87878213D01*
X160878213Y-87989707D01*
X160878210Y-87989711D01*
X160790609Y-88120814D01*
X160790602Y-88120827D01*
X160730264Y-88266498D01*
X160730261Y-88266510D01*
X160699500Y-88421153D01*
X153938032Y-88421153D01*
X154011966Y-88347219D01*
X154015626Y-88342181D01*
X154015627Y-88342181D01*
X154097010Y-88230165D01*
X154132287Y-88181610D01*
X154225220Y-87999219D01*
X154288477Y-87804534D01*
X154320500Y-87602352D01*
X154320500Y-87397648D01*
X154300240Y-87269735D01*
X154288477Y-87195465D01*
X154228309Y-87010288D01*
X154225220Y-87000781D01*
X154225218Y-87000778D01*
X154225218Y-87000776D01*
X154174123Y-86900498D01*
X154132287Y-86818390D01*
X154115134Y-86794781D01*
X154011971Y-86652786D01*
X153867213Y-86508028D01*
X153701611Y-86387713D01*
X153608369Y-86340203D01*
X153557574Y-86292229D01*
X153540779Y-86224407D01*
X153563317Y-86158273D01*
X153608371Y-86119234D01*
X153701347Y-86071861D01*
X153866894Y-85951582D01*
X153866895Y-85951582D01*
X154011582Y-85806895D01*
X154011582Y-85806894D01*
X154131859Y-85641349D01*
X154224755Y-85459029D01*
X154287990Y-85264413D01*
X154296609Y-85210000D01*
X152935686Y-85210000D01*
X152940080Y-85205606D01*
X152992741Y-85114394D01*
X153020000Y-85012661D01*
X153020000Y-84907339D01*
X153011453Y-84875441D01*
X187859500Y-84875441D01*
X187859500Y-85124558D01*
X187859501Y-85124575D01*
X187886906Y-85332741D01*
X187892018Y-85371565D01*
X187910469Y-85440426D01*
X187956498Y-85612207D01*
X188051830Y-85842361D01*
X188051837Y-85842376D01*
X188176400Y-86058126D01*
X188328060Y-86255774D01*
X188328066Y-86255781D01*
X188504218Y-86431933D01*
X188504225Y-86431939D01*
X188701873Y-86583599D01*
X188917623Y-86708162D01*
X188917638Y-86708169D01*
X189016825Y-86749253D01*
X189147793Y-86803502D01*
X189388435Y-86867982D01*
X189635435Y-86900500D01*
X189635442Y-86900500D01*
X189884558Y-86900500D01*
X189884565Y-86900500D01*
X190131565Y-86867982D01*
X190372207Y-86803502D01*
X190602373Y-86708164D01*
X190818127Y-86583599D01*
X191015776Y-86431938D01*
X191191938Y-86255776D01*
X191343599Y-86058127D01*
X191468164Y-85842373D01*
X191563502Y-85612207D01*
X191627982Y-85371565D01*
X191660500Y-85124565D01*
X191660500Y-84875441D01*
X203099500Y-84875441D01*
X203099500Y-85124558D01*
X203099501Y-85124575D01*
X203126906Y-85332741D01*
X203132018Y-85371565D01*
X203150469Y-85440426D01*
X203196498Y-85612207D01*
X203291830Y-85842361D01*
X203291837Y-85842376D01*
X203416400Y-86058126D01*
X203568060Y-86255774D01*
X203568066Y-86255781D01*
X203744218Y-86431933D01*
X203744225Y-86431939D01*
X203941873Y-86583599D01*
X204157623Y-86708162D01*
X204157638Y-86708169D01*
X204256825Y-86749253D01*
X204387793Y-86803502D01*
X204628435Y-86867982D01*
X204875435Y-86900500D01*
X204875442Y-86900500D01*
X205124558Y-86900500D01*
X205124565Y-86900500D01*
X205371565Y-86867982D01*
X205612207Y-86803502D01*
X205842373Y-86708164D01*
X206058127Y-86583599D01*
X206255776Y-86431938D01*
X206431938Y-86255776D01*
X206583599Y-86058127D01*
X206708164Y-85842373D01*
X206803502Y-85612207D01*
X206867982Y-85371565D01*
X206900500Y-85124565D01*
X206900500Y-84889778D01*
X211939500Y-84889778D01*
X211939500Y-85110221D01*
X211973985Y-85327952D01*
X212042103Y-85537603D01*
X212042104Y-85537606D01*
X212094965Y-85641349D01*
X212140270Y-85730264D01*
X212142187Y-85734025D01*
X212271752Y-85912358D01*
X212271756Y-85912363D01*
X212427636Y-86068243D01*
X212427641Y-86068247D01*
X212563851Y-86167208D01*
X212605978Y-86197815D01*
X212722501Y-86257187D01*
X212802393Y-86297895D01*
X212802396Y-86297896D01*
X212907221Y-86331955D01*
X213012049Y-86366015D01*
X213229778Y-86400500D01*
X213229779Y-86400500D01*
X213450221Y-86400500D01*
X213450222Y-86400500D01*
X213667951Y-86366015D01*
X213877606Y-86297895D01*
X214074022Y-86197815D01*
X214252365Y-86068242D01*
X214302924Y-86017682D01*
X214364245Y-85984198D01*
X214433936Y-85989182D01*
X214489870Y-86031053D01*
X214506786Y-86062030D01*
X214536646Y-86142087D01*
X214536649Y-86142093D01*
X214622809Y-86257187D01*
X214622812Y-86257190D01*
X214737906Y-86343350D01*
X214737913Y-86343354D01*
X214872620Y-86393596D01*
X214872627Y-86393598D01*
X214932155Y-86399999D01*
X214932172Y-86400000D01*
X215630000Y-86400000D01*
X215630000Y-85375277D01*
X215706306Y-85419333D01*
X215820756Y-85450000D01*
X215939244Y-85450000D01*
X216053694Y-85419333D01*
X216130000Y-85375277D01*
X216130000Y-86400000D01*
X216827828Y-86400000D01*
X216827844Y-86399999D01*
X216887372Y-86393598D01*
X216887379Y-86393596D01*
X217022086Y-86343354D01*
X217022093Y-86343350D01*
X217137187Y-86257190D01*
X217137190Y-86257187D01*
X217223350Y-86142093D01*
X217223354Y-86142086D01*
X217273596Y-86007379D01*
X217273598Y-86007372D01*
X217279999Y-85947844D01*
X217280000Y-85947827D01*
X217280000Y-85250000D01*
X216255278Y-85250000D01*
X216299333Y-85173694D01*
X216330000Y-85059244D01*
X216330000Y-84940756D01*
X216299333Y-84826306D01*
X216255278Y-84750000D01*
X217280000Y-84750000D01*
X217280000Y-84052172D01*
X217279999Y-84052155D01*
X217273598Y-83992627D01*
X217273596Y-83992620D01*
X217223354Y-83857913D01*
X217223350Y-83857906D01*
X217137190Y-83742812D01*
X217137187Y-83742809D01*
X217022093Y-83656649D01*
X217022086Y-83656645D01*
X216887379Y-83606403D01*
X216887372Y-83606401D01*
X216827844Y-83600000D01*
X216130000Y-83600000D01*
X216130000Y-84624722D01*
X216053694Y-84580667D01*
X215939244Y-84550000D01*
X215820756Y-84550000D01*
X215706306Y-84580667D01*
X215630000Y-84624722D01*
X215630000Y-83600000D01*
X214932155Y-83600000D01*
X214872627Y-83606401D01*
X214872620Y-83606403D01*
X214737913Y-83656645D01*
X214737906Y-83656649D01*
X214622812Y-83742809D01*
X214622809Y-83742812D01*
X214536649Y-83857906D01*
X214536643Y-83857918D01*
X214506785Y-83937969D01*
X214464914Y-83993903D01*
X214399449Y-84018319D01*
X214331176Y-84003467D01*
X214302923Y-83982316D01*
X214252363Y-83931756D01*
X214252358Y-83931752D01*
X214074025Y-83802187D01*
X214074024Y-83802186D01*
X214074022Y-83802185D01*
X213982950Y-83755781D01*
X213877606Y-83702104D01*
X213877603Y-83702103D01*
X213667952Y-83633985D01*
X213559086Y-83616742D01*
X213450222Y-83599500D01*
X213229778Y-83599500D01*
X213157201Y-83610995D01*
X213012047Y-83633985D01*
X212802396Y-83702103D01*
X212802393Y-83702104D01*
X212605974Y-83802187D01*
X212427641Y-83931752D01*
X212427636Y-83931756D01*
X212271756Y-84087636D01*
X212271752Y-84087641D01*
X212142187Y-84265974D01*
X212042104Y-84462393D01*
X212042103Y-84462396D01*
X211973985Y-84672047D01*
X211939500Y-84889778D01*
X206900500Y-84889778D01*
X206900500Y-84875435D01*
X206867982Y-84628435D01*
X206803502Y-84387793D01*
X206729097Y-84208164D01*
X206708169Y-84157638D01*
X206708162Y-84157623D01*
X206583599Y-83941873D01*
X206431939Y-83744225D01*
X206431933Y-83744218D01*
X206255781Y-83568066D01*
X206255774Y-83568060D01*
X206058126Y-83416400D01*
X205842376Y-83291837D01*
X205842361Y-83291830D01*
X205612207Y-83196498D01*
X205371561Y-83132017D01*
X205124575Y-83099501D01*
X205124570Y-83099500D01*
X205124565Y-83099500D01*
X204875435Y-83099500D01*
X204875429Y-83099500D01*
X204875424Y-83099501D01*
X204628438Y-83132017D01*
X204387792Y-83196498D01*
X204157638Y-83291830D01*
X204157623Y-83291837D01*
X203941873Y-83416400D01*
X203744225Y-83568060D01*
X203744218Y-83568066D01*
X203568066Y-83744218D01*
X203568060Y-83744225D01*
X203416400Y-83941873D01*
X203291837Y-84157623D01*
X203291830Y-84157638D01*
X203196498Y-84387792D01*
X203132017Y-84628438D01*
X203099501Y-84875424D01*
X203099500Y-84875441D01*
X191660500Y-84875441D01*
X191660500Y-84875435D01*
X191627982Y-84628435D01*
X191563502Y-84387793D01*
X191489097Y-84208164D01*
X191468169Y-84157638D01*
X191468162Y-84157623D01*
X191343599Y-83941873D01*
X191191939Y-83744225D01*
X191191933Y-83744218D01*
X191015781Y-83568066D01*
X191015774Y-83568060D01*
X190818126Y-83416400D01*
X190602376Y-83291837D01*
X190602361Y-83291830D01*
X190372207Y-83196498D01*
X190131561Y-83132017D01*
X189884575Y-83099501D01*
X189884570Y-83099500D01*
X189884565Y-83099500D01*
X189635435Y-83099500D01*
X189635429Y-83099500D01*
X189635424Y-83099501D01*
X189388438Y-83132017D01*
X189147792Y-83196498D01*
X188917638Y-83291830D01*
X188917623Y-83291837D01*
X188701873Y-83416400D01*
X188504225Y-83568060D01*
X188504218Y-83568066D01*
X188328066Y-83744218D01*
X188328060Y-83744225D01*
X188176400Y-83941873D01*
X188051837Y-84157623D01*
X188051830Y-84157638D01*
X187956498Y-84387792D01*
X187892017Y-84628438D01*
X187859501Y-84875424D01*
X187859500Y-84875441D01*
X153011453Y-84875441D01*
X152992741Y-84805606D01*
X152940080Y-84714394D01*
X152935686Y-84710000D01*
X154296609Y-84710000D01*
X154287990Y-84655586D01*
X154224755Y-84460970D01*
X154131859Y-84278650D01*
X154011582Y-84113105D01*
X154011582Y-84113104D01*
X153866895Y-83968417D01*
X153701349Y-83848140D01*
X153608370Y-83800765D01*
X153557574Y-83752790D01*
X153540779Y-83684969D01*
X153563316Y-83618835D01*
X153608370Y-83579795D01*
X153608920Y-83579515D01*
X153701610Y-83532287D01*
X153797835Y-83462376D01*
X153867213Y-83411971D01*
X153867215Y-83411968D01*
X153867219Y-83411966D01*
X154011966Y-83267219D01*
X154011968Y-83267215D01*
X154011971Y-83267213D01*
X154117628Y-83121786D01*
X154132287Y-83101610D01*
X154225220Y-82919219D01*
X154288477Y-82724534D01*
X154320500Y-82522352D01*
X154320500Y-82375441D01*
X163099500Y-82375441D01*
X163099500Y-82624558D01*
X163099501Y-82624575D01*
X163132017Y-82871561D01*
X163196498Y-83112207D01*
X163291830Y-83342361D01*
X163291837Y-83342376D01*
X163416400Y-83558126D01*
X163568060Y-83755774D01*
X163568066Y-83755781D01*
X163744218Y-83931933D01*
X163744225Y-83931939D01*
X163941873Y-84083599D01*
X164157623Y-84208162D01*
X164157638Y-84208169D01*
X164253756Y-84247982D01*
X164387793Y-84303502D01*
X164628435Y-84367982D01*
X164875435Y-84400500D01*
X164875442Y-84400500D01*
X165124558Y-84400500D01*
X165124565Y-84400500D01*
X165371565Y-84367982D01*
X165612207Y-84303502D01*
X165842373Y-84208164D01*
X166058127Y-84083599D01*
X166255776Y-83931938D01*
X166431938Y-83755776D01*
X166583599Y-83558127D01*
X166708164Y-83342373D01*
X166803502Y-83112207D01*
X166867982Y-82871565D01*
X166900500Y-82624565D01*
X166900500Y-82375441D01*
X173099500Y-82375441D01*
X173099500Y-82624558D01*
X173099501Y-82624575D01*
X173132017Y-82871561D01*
X173196498Y-83112207D01*
X173291830Y-83342361D01*
X173291837Y-83342376D01*
X173416400Y-83558126D01*
X173568060Y-83755774D01*
X173568066Y-83755781D01*
X173744218Y-83931933D01*
X173744225Y-83931939D01*
X173941873Y-84083599D01*
X174157623Y-84208162D01*
X174157638Y-84208169D01*
X174253756Y-84247982D01*
X174387793Y-84303502D01*
X174628435Y-84367982D01*
X174875435Y-84400500D01*
X174875442Y-84400500D01*
X175124558Y-84400500D01*
X175124565Y-84400500D01*
X175371565Y-84367982D01*
X175612207Y-84303502D01*
X175842373Y-84208164D01*
X176058127Y-84083599D01*
X176255776Y-83931938D01*
X176431938Y-83755776D01*
X176583599Y-83558127D01*
X176708164Y-83342373D01*
X176803502Y-83112207D01*
X176867982Y-82871565D01*
X176900500Y-82624565D01*
X176900500Y-82375435D01*
X176867982Y-82128435D01*
X176803502Y-81887793D01*
X176738250Y-81730261D01*
X176708169Y-81657638D01*
X176708162Y-81657623D01*
X176583599Y-81441873D01*
X176431939Y-81244225D01*
X176431933Y-81244218D01*
X176255781Y-81068066D01*
X176255774Y-81068060D01*
X176058126Y-80916400D01*
X175842376Y-80791837D01*
X175842361Y-80791830D01*
X175612207Y-80696498D01*
X175371561Y-80632017D01*
X175124575Y-80599501D01*
X175124570Y-80599500D01*
X175124565Y-80599500D01*
X174875435Y-80599500D01*
X174875429Y-80599500D01*
X174875424Y-80599501D01*
X174628438Y-80632017D01*
X174387792Y-80696498D01*
X174157638Y-80791830D01*
X174157623Y-80791837D01*
X173941873Y-80916400D01*
X173744225Y-81068060D01*
X173744218Y-81068066D01*
X173568066Y-81244218D01*
X173568060Y-81244225D01*
X173416400Y-81441873D01*
X173291837Y-81657623D01*
X173291830Y-81657638D01*
X173196498Y-81887792D01*
X173132017Y-82128438D01*
X173099501Y-82375424D01*
X173099500Y-82375441D01*
X166900500Y-82375441D01*
X166900500Y-82375435D01*
X166867982Y-82128435D01*
X166803502Y-81887793D01*
X166738250Y-81730261D01*
X166708169Y-81657638D01*
X166708162Y-81657623D01*
X166583599Y-81441873D01*
X166431939Y-81244225D01*
X166431933Y-81244218D01*
X166255781Y-81068066D01*
X166255774Y-81068060D01*
X166058126Y-80916400D01*
X165842376Y-80791837D01*
X165842361Y-80791830D01*
X165612207Y-80696498D01*
X165371561Y-80632017D01*
X165124575Y-80599501D01*
X165124570Y-80599500D01*
X165124565Y-80599500D01*
X164875435Y-80599500D01*
X164875429Y-80599500D01*
X164875424Y-80599501D01*
X164628438Y-80632017D01*
X164387792Y-80696498D01*
X164157638Y-80791830D01*
X164157623Y-80791837D01*
X163941873Y-80916400D01*
X163744225Y-81068060D01*
X163744218Y-81068066D01*
X163568066Y-81244218D01*
X163568060Y-81244225D01*
X163416400Y-81441873D01*
X163291837Y-81657623D01*
X163291830Y-81657638D01*
X163196498Y-81887792D01*
X163132017Y-82128438D01*
X163099501Y-82375424D01*
X163099500Y-82375441D01*
X154320500Y-82375441D01*
X154320500Y-82317648D01*
X154290531Y-82128435D01*
X154288477Y-82115465D01*
X154253701Y-82008438D01*
X154225220Y-81920781D01*
X154225218Y-81920778D01*
X154225218Y-81920776D01*
X154191503Y-81854607D01*
X154132287Y-81738390D01*
X154104032Y-81699500D01*
X154011971Y-81572786D01*
X153867213Y-81428028D01*
X153701614Y-81307715D01*
X153695006Y-81304348D01*
X153608917Y-81260483D01*
X153558123Y-81212511D01*
X153541328Y-81144690D01*
X153563865Y-81078555D01*
X153608917Y-81039516D01*
X153701610Y-80992287D01*
X153722770Y-80976913D01*
X153867213Y-80871971D01*
X153867215Y-80871968D01*
X153867219Y-80871966D01*
X154011966Y-80727219D01*
X154011968Y-80727215D01*
X154011971Y-80727213D01*
X154081134Y-80632017D01*
X154132287Y-80561610D01*
X154225220Y-80379219D01*
X154288477Y-80184534D01*
X154320500Y-79982352D01*
X154320500Y-79777648D01*
X154288477Y-79575466D01*
X154225220Y-79380781D01*
X154225218Y-79380778D01*
X154225218Y-79380776D01*
X154191503Y-79314607D01*
X154132287Y-79198390D01*
X154124556Y-79187749D01*
X154011971Y-79032786D01*
X153867213Y-78888028D01*
X153701614Y-78767715D01*
X153695006Y-78764348D01*
X153608917Y-78720483D01*
X153558123Y-78672511D01*
X153541328Y-78604690D01*
X153563865Y-78538555D01*
X153608917Y-78499516D01*
X153701610Y-78452287D01*
X153830482Y-78358657D01*
X153867213Y-78331971D01*
X153867215Y-78331968D01*
X153867219Y-78331966D01*
X154011966Y-78187219D01*
X154011968Y-78187215D01*
X154011971Y-78187213D01*
X154116892Y-78042799D01*
X154132287Y-78021610D01*
X154225220Y-77839219D01*
X154288477Y-77644534D01*
X154320500Y-77442352D01*
X154320500Y-77237648D01*
X154317528Y-77218881D01*
X154288477Y-77035465D01*
X154234974Y-76870801D01*
X154225220Y-76840781D01*
X154225218Y-76840778D01*
X154225218Y-76840776D01*
X154173865Y-76739991D01*
X154132287Y-76658390D01*
X154078467Y-76584312D01*
X154011971Y-76492786D01*
X153867213Y-76348028D01*
X153701613Y-76227715D01*
X153701612Y-76227714D01*
X153701610Y-76227713D01*
X153641898Y-76197288D01*
X153519223Y-76134781D01*
X153324534Y-76071522D01*
X153149995Y-76043878D01*
X153122352Y-76039500D01*
X152117648Y-76039500D01*
X152093329Y-76043351D01*
X151915465Y-76071522D01*
X151720776Y-76134781D01*
X151538386Y-76227715D01*
X151372786Y-76348028D01*
X151228028Y-76492786D01*
X151107715Y-76658386D01*
X151014781Y-76840776D01*
X150951522Y-77035465D01*
X150919500Y-77237648D01*
X146700499Y-77237648D01*
X146700499Y-76739992D01*
X146689999Y-76637203D01*
X146634814Y-76470666D01*
X146542712Y-76321344D01*
X146418656Y-76197288D01*
X146269334Y-76105186D01*
X146102797Y-76050001D01*
X146102795Y-76050000D01*
X146000010Y-76039500D01*
X143999998Y-76039500D01*
X143999981Y-76039501D01*
X143897203Y-76050000D01*
X143897200Y-76050001D01*
X143730668Y-76105185D01*
X143730663Y-76105187D01*
X143581342Y-76197289D01*
X143457289Y-76321342D01*
X143365187Y-76470663D01*
X143365186Y-76470666D01*
X143310001Y-76637203D01*
X143310001Y-76637204D01*
X143310000Y-76637204D01*
X143299500Y-76739983D01*
X83431715Y-76739983D01*
X83415690Y-76717927D01*
X83282073Y-76584310D01*
X83129199Y-76473240D01*
X83124141Y-76470663D01*
X82960836Y-76387454D01*
X82886472Y-76363291D01*
X82839195Y-76347930D01*
X82781521Y-76308493D01*
X82754323Y-76244134D01*
X82766238Y-76175288D01*
X82813482Y-76123812D01*
X82839194Y-76112069D01*
X82960832Y-76072547D01*
X83129199Y-75986760D01*
X83282073Y-75875690D01*
X83415690Y-75742073D01*
X83526760Y-75589199D01*
X83612547Y-75420832D01*
X83670940Y-75241118D01*
X83681619Y-75173694D01*
X83700500Y-75054486D01*
X83700500Y-74875441D01*
X187979500Y-74875441D01*
X187979500Y-75124558D01*
X187979501Y-75124575D01*
X188012017Y-75371561D01*
X188076498Y-75612207D01*
X188171830Y-75842361D01*
X188171837Y-75842376D01*
X188296400Y-76058126D01*
X188448060Y-76255774D01*
X188448066Y-76255781D01*
X188624218Y-76431933D01*
X188624225Y-76431939D01*
X188821873Y-76583599D01*
X189037623Y-76708162D01*
X189037638Y-76708169D01*
X189114440Y-76739981D01*
X189267793Y-76803502D01*
X189508435Y-76867982D01*
X189755435Y-76900500D01*
X189755442Y-76900500D01*
X190004558Y-76900500D01*
X190004565Y-76900500D01*
X190251565Y-76867982D01*
X190492207Y-76803502D01*
X190722373Y-76708164D01*
X190938127Y-76583599D01*
X191135776Y-76431938D01*
X191311938Y-76255776D01*
X191463599Y-76058127D01*
X191588164Y-75842373D01*
X191683502Y-75612207D01*
X191747982Y-75371565D01*
X191780500Y-75124565D01*
X191780500Y-74875441D01*
X203219500Y-74875441D01*
X203219500Y-75124558D01*
X203219501Y-75124575D01*
X203252017Y-75371561D01*
X203316498Y-75612207D01*
X203411830Y-75842361D01*
X203411837Y-75842376D01*
X203536400Y-76058126D01*
X203688060Y-76255774D01*
X203688066Y-76255781D01*
X203864218Y-76431933D01*
X203864225Y-76431939D01*
X204061873Y-76583599D01*
X204277623Y-76708162D01*
X204277638Y-76708169D01*
X204354440Y-76739981D01*
X204507793Y-76803502D01*
X204748435Y-76867982D01*
X204995435Y-76900500D01*
X204995442Y-76900500D01*
X205244558Y-76900500D01*
X205244565Y-76900500D01*
X205491565Y-76867982D01*
X205732207Y-76803502D01*
X205962373Y-76708164D01*
X206178127Y-76583599D01*
X206375776Y-76431938D01*
X206551938Y-76255776D01*
X206703599Y-76058127D01*
X206828164Y-75842373D01*
X206923502Y-75612207D01*
X206987982Y-75371565D01*
X207020500Y-75124565D01*
X207020500Y-74889778D01*
X212329500Y-74889778D01*
X212329500Y-75110221D01*
X212363985Y-75327952D01*
X212432103Y-75537603D01*
X212432104Y-75537606D01*
X212532187Y-75734025D01*
X212661752Y-75912358D01*
X212661756Y-75912363D01*
X212817636Y-76068243D01*
X212817641Y-76068247D01*
X212932240Y-76151507D01*
X212995978Y-76197815D01*
X213112501Y-76257187D01*
X213192393Y-76297895D01*
X213192396Y-76297896D01*
X213288311Y-76329060D01*
X213402049Y-76366015D01*
X213619778Y-76400500D01*
X213619779Y-76400500D01*
X213840221Y-76400500D01*
X213840222Y-76400500D01*
X214057951Y-76366015D01*
X214267606Y-76297895D01*
X214464022Y-76197815D01*
X214642365Y-76068242D01*
X214692924Y-76017682D01*
X214754245Y-75984198D01*
X214823936Y-75989182D01*
X214879870Y-76031053D01*
X214896786Y-76062030D01*
X214926646Y-76142087D01*
X214926649Y-76142093D01*
X215012809Y-76257187D01*
X215012812Y-76257190D01*
X215127906Y-76343350D01*
X215127913Y-76343354D01*
X215262620Y-76393596D01*
X215262627Y-76393598D01*
X215322155Y-76399999D01*
X215322172Y-76400000D01*
X216020000Y-76400000D01*
X216020000Y-75375277D01*
X216096306Y-75419333D01*
X216210756Y-75450000D01*
X216329244Y-75450000D01*
X216443694Y-75419333D01*
X216520000Y-75375277D01*
X216520000Y-76400000D01*
X217217828Y-76400000D01*
X217217844Y-76399999D01*
X217277372Y-76393598D01*
X217277379Y-76393596D01*
X217412086Y-76343354D01*
X217412093Y-76343350D01*
X217527187Y-76257190D01*
X217527190Y-76257187D01*
X217613350Y-76142093D01*
X217613354Y-76142086D01*
X217663596Y-76007379D01*
X217663598Y-76007372D01*
X217669999Y-75947844D01*
X217670000Y-75947827D01*
X217670000Y-75250000D01*
X216645278Y-75250000D01*
X216689333Y-75173694D01*
X216720000Y-75059244D01*
X216720000Y-74940756D01*
X216689333Y-74826306D01*
X216645278Y-74750000D01*
X217670000Y-74750000D01*
X217670000Y-74052172D01*
X217669999Y-74052155D01*
X217663598Y-73992627D01*
X217663596Y-73992620D01*
X217613354Y-73857913D01*
X217613350Y-73857906D01*
X217527190Y-73742812D01*
X217527187Y-73742809D01*
X217412093Y-73656649D01*
X217412086Y-73656645D01*
X217277379Y-73606403D01*
X217277372Y-73606401D01*
X217217844Y-73600000D01*
X216520000Y-73600000D01*
X216520000Y-74624722D01*
X216443694Y-74580667D01*
X216329244Y-74550000D01*
X216210756Y-74550000D01*
X216096306Y-74580667D01*
X216020000Y-74624722D01*
X216020000Y-73600000D01*
X215322155Y-73600000D01*
X215262627Y-73606401D01*
X215262620Y-73606403D01*
X215127913Y-73656645D01*
X215127906Y-73656649D01*
X215012812Y-73742809D01*
X215012809Y-73742812D01*
X214926649Y-73857906D01*
X214926643Y-73857918D01*
X214896785Y-73937969D01*
X214854914Y-73993903D01*
X214789449Y-74018319D01*
X214721176Y-74003467D01*
X214692923Y-73982316D01*
X214642363Y-73931756D01*
X214642358Y-73931752D01*
X214464025Y-73802187D01*
X214464024Y-73802186D01*
X214464022Y-73802185D01*
X214380249Y-73759500D01*
X214267606Y-73702104D01*
X214267603Y-73702103D01*
X214057952Y-73633985D01*
X213949086Y-73616742D01*
X213840222Y-73599500D01*
X213619778Y-73599500D01*
X213547201Y-73610995D01*
X213402047Y-73633985D01*
X213192396Y-73702103D01*
X213192393Y-73702104D01*
X212995974Y-73802187D01*
X212817641Y-73931752D01*
X212817636Y-73931756D01*
X212661756Y-74087636D01*
X212661752Y-74087641D01*
X212532187Y-74265974D01*
X212432104Y-74462393D01*
X212432103Y-74462396D01*
X212363985Y-74672047D01*
X212329500Y-74889778D01*
X207020500Y-74889778D01*
X207020500Y-74875435D01*
X206987982Y-74628435D01*
X206923502Y-74387793D01*
X206836572Y-74177925D01*
X206828169Y-74157638D01*
X206828162Y-74157623D01*
X206703599Y-73941873D01*
X206551939Y-73744225D01*
X206551933Y-73744218D01*
X206375781Y-73568066D01*
X206375774Y-73568060D01*
X206178126Y-73416400D01*
X205962376Y-73291837D01*
X205962361Y-73291830D01*
X205732207Y-73196498D01*
X205491561Y-73132017D01*
X205244575Y-73099501D01*
X205244570Y-73099500D01*
X205244565Y-73099500D01*
X204995435Y-73099500D01*
X204995429Y-73099500D01*
X204995424Y-73099501D01*
X204748438Y-73132017D01*
X204507792Y-73196498D01*
X204277638Y-73291830D01*
X204277623Y-73291837D01*
X204061873Y-73416400D01*
X203864225Y-73568060D01*
X203864218Y-73568066D01*
X203688066Y-73744218D01*
X203688060Y-73744225D01*
X203536400Y-73941873D01*
X203411837Y-74157623D01*
X203411830Y-74157638D01*
X203316498Y-74387792D01*
X203252017Y-74628438D01*
X203219501Y-74875424D01*
X203219500Y-74875441D01*
X191780500Y-74875441D01*
X191780500Y-74875435D01*
X191747982Y-74628435D01*
X191683502Y-74387793D01*
X191596572Y-74177925D01*
X191588169Y-74157638D01*
X191588162Y-74157623D01*
X191463599Y-73941873D01*
X191311939Y-73744225D01*
X191311933Y-73744218D01*
X191135781Y-73568066D01*
X191135774Y-73568060D01*
X190938126Y-73416400D01*
X190722376Y-73291837D01*
X190722361Y-73291830D01*
X190492207Y-73196498D01*
X190251561Y-73132017D01*
X190004575Y-73099501D01*
X190004570Y-73099500D01*
X190004565Y-73099500D01*
X189755435Y-73099500D01*
X189755429Y-73099500D01*
X189755424Y-73099501D01*
X189508438Y-73132017D01*
X189267792Y-73196498D01*
X189037638Y-73291830D01*
X189037623Y-73291837D01*
X188821873Y-73416400D01*
X188624225Y-73568060D01*
X188624218Y-73568066D01*
X188448066Y-73744218D01*
X188448060Y-73744225D01*
X188296400Y-73941873D01*
X188171837Y-74157623D01*
X188171830Y-74157638D01*
X188076498Y-74387792D01*
X188012017Y-74628438D01*
X187979501Y-74875424D01*
X187979500Y-74875441D01*
X83700500Y-74875441D01*
X83700500Y-74865513D01*
X83670940Y-74678881D01*
X83612545Y-74499163D01*
X83526759Y-74330800D01*
X83415690Y-74177927D01*
X83282073Y-74044310D01*
X83129199Y-73933240D01*
X83126290Y-73931758D01*
X82960836Y-73847454D01*
X82781118Y-73789059D01*
X82594486Y-73759500D01*
X82594481Y-73759500D01*
X82405519Y-73759500D01*
X82405514Y-73759500D01*
X82218881Y-73789059D01*
X82039163Y-73847454D01*
X81870800Y-73933240D01*
X81803254Y-73982316D01*
X81717927Y-74044310D01*
X81717925Y-74044312D01*
X81717924Y-74044312D01*
X81584312Y-74177924D01*
X81584312Y-74177925D01*
X81584310Y-74177927D01*
X81536610Y-74243579D01*
X81473240Y-74330800D01*
X81387454Y-74499163D01*
X81329059Y-74678881D01*
X81299500Y-74865513D01*
X67000500Y-74865513D01*
X67000500Y-67375466D01*
X121100000Y-67375466D01*
X121100000Y-67624533D01*
X121132508Y-67871463D01*
X121196973Y-68112049D01*
X121292283Y-68342148D01*
X121292288Y-68342159D01*
X121416813Y-68557841D01*
X121416819Y-68557849D01*
X121491400Y-68655045D01*
X122360689Y-67785756D01*
X122379668Y-67831574D01*
X122456274Y-67946224D01*
X122553776Y-68043726D01*
X122668426Y-68120332D01*
X122714242Y-68139309D01*
X121844953Y-69008598D01*
X121942150Y-69083180D01*
X121942158Y-69083186D01*
X122157840Y-69207711D01*
X122157851Y-69207716D01*
X122387950Y-69303026D01*
X122628536Y-69367491D01*
X122875466Y-69400000D01*
X123124534Y-69400000D01*
X123371463Y-69367491D01*
X123612049Y-69303026D01*
X123842148Y-69207716D01*
X123842159Y-69207711D01*
X124057855Y-69083178D01*
X124155045Y-69008600D01*
X124155045Y-69008597D01*
X123285757Y-68139309D01*
X123331574Y-68120332D01*
X123446224Y-68043726D01*
X123543726Y-67946224D01*
X123620332Y-67831574D01*
X123639309Y-67785757D01*
X124508597Y-68655045D01*
X124508600Y-68655045D01*
X124583178Y-68557855D01*
X124707711Y-68342159D01*
X124707716Y-68342148D01*
X124803026Y-68112049D01*
X124867491Y-67871463D01*
X124900000Y-67624533D01*
X124900000Y-67375466D01*
X124885794Y-67267561D01*
X124884198Y-67255441D01*
X130599500Y-67255441D01*
X130599500Y-67504558D01*
X130599501Y-67504575D01*
X130632017Y-67751561D01*
X130696498Y-67992207D01*
X130791830Y-68222361D01*
X130791837Y-68222376D01*
X130916400Y-68438126D01*
X131068060Y-68635774D01*
X131068066Y-68635781D01*
X131244218Y-68811933D01*
X131244225Y-68811939D01*
X131441873Y-68963599D01*
X131657623Y-69088162D01*
X131657638Y-69088169D01*
X131752571Y-69127491D01*
X131887793Y-69183502D01*
X132128435Y-69247982D01*
X132375435Y-69280500D01*
X132375442Y-69280500D01*
X132624558Y-69280500D01*
X132624565Y-69280500D01*
X132871565Y-69247982D01*
X133112207Y-69183502D01*
X133342373Y-69088164D01*
X133558127Y-68963599D01*
X133755776Y-68811938D01*
X133931938Y-68635776D01*
X134083599Y-68438127D01*
X134208164Y-68222373D01*
X134303502Y-67992207D01*
X134367982Y-67751565D01*
X134400500Y-67504565D01*
X134400500Y-67255435D01*
X134384706Y-67135466D01*
X163100000Y-67135466D01*
X163100000Y-67384533D01*
X163132508Y-67631463D01*
X163196973Y-67872049D01*
X163292283Y-68102148D01*
X163292288Y-68102159D01*
X163416813Y-68317841D01*
X163416819Y-68317849D01*
X163491400Y-68415045D01*
X164360689Y-67545756D01*
X164379668Y-67591574D01*
X164456274Y-67706224D01*
X164553776Y-67803726D01*
X164668426Y-67880332D01*
X164714242Y-67899309D01*
X163844953Y-68768598D01*
X163942150Y-68843180D01*
X163942158Y-68843186D01*
X164157840Y-68967711D01*
X164157851Y-68967716D01*
X164387950Y-69063026D01*
X164628536Y-69127491D01*
X164875466Y-69160000D01*
X165124534Y-69160000D01*
X165371463Y-69127491D01*
X165612049Y-69063026D01*
X165842148Y-68967716D01*
X165842159Y-68967711D01*
X166057855Y-68843178D01*
X166155045Y-68768600D01*
X166155045Y-68768597D01*
X165285757Y-67899309D01*
X165331574Y-67880332D01*
X165446224Y-67803726D01*
X165543726Y-67706224D01*
X165620332Y-67591574D01*
X165639309Y-67545757D01*
X166508597Y-68415045D01*
X166508600Y-68415045D01*
X166583178Y-68317855D01*
X166707711Y-68102159D01*
X166707716Y-68102148D01*
X166803026Y-67872049D01*
X166867491Y-67631463D01*
X166900000Y-67384533D01*
X166900000Y-67135466D01*
X166899997Y-67135441D01*
X173099500Y-67135441D01*
X173099500Y-67384558D01*
X173099501Y-67384575D01*
X173132017Y-67631561D01*
X173196498Y-67872207D01*
X173291830Y-68102361D01*
X173291837Y-68102376D01*
X173416400Y-68318126D01*
X173568060Y-68515774D01*
X173568066Y-68515781D01*
X173744218Y-68691933D01*
X173744225Y-68691939D01*
X173941873Y-68843599D01*
X174157623Y-68968162D01*
X174157638Y-68968169D01*
X174255241Y-69008597D01*
X174387793Y-69063502D01*
X174628435Y-69127982D01*
X174875435Y-69160500D01*
X174875442Y-69160500D01*
X175124558Y-69160500D01*
X175124565Y-69160500D01*
X175371565Y-69127982D01*
X175612207Y-69063502D01*
X175842373Y-68968164D01*
X176058127Y-68843599D01*
X176255776Y-68691938D01*
X176431938Y-68515776D01*
X176583599Y-68318127D01*
X176708164Y-68102373D01*
X176803502Y-67872207D01*
X176867982Y-67631565D01*
X176900500Y-67384565D01*
X176900500Y-67135435D01*
X176867982Y-66888435D01*
X176803502Y-66647793D01*
X176708257Y-66417851D01*
X176708169Y-66417638D01*
X176708162Y-66417623D01*
X176583599Y-66201873D01*
X176431939Y-66004225D01*
X176431933Y-66004218D01*
X176255781Y-65828066D01*
X176255774Y-65828060D01*
X176058126Y-65676400D01*
X175842376Y-65551837D01*
X175842361Y-65551830D01*
X175612207Y-65456498D01*
X175371565Y-65392018D01*
X175371564Y-65392017D01*
X175371561Y-65392017D01*
X175124575Y-65359501D01*
X175124570Y-65359500D01*
X175124565Y-65359500D01*
X174875435Y-65359500D01*
X174875429Y-65359500D01*
X174875424Y-65359501D01*
X174628438Y-65392017D01*
X174387792Y-65456498D01*
X174157638Y-65551830D01*
X174157623Y-65551837D01*
X173941873Y-65676400D01*
X173744225Y-65828060D01*
X173744218Y-65828066D01*
X173568066Y-66004218D01*
X173568060Y-66004225D01*
X173416400Y-66201873D01*
X173291837Y-66417623D01*
X173291830Y-66417638D01*
X173196498Y-66647792D01*
X173132017Y-66888438D01*
X173099501Y-67135424D01*
X173099500Y-67135441D01*
X166899997Y-67135441D01*
X166867491Y-66888536D01*
X166803026Y-66647950D01*
X166707716Y-66417851D01*
X166707711Y-66417840D01*
X166583186Y-66202158D01*
X166583180Y-66202150D01*
X166508598Y-66104953D01*
X165639309Y-66974242D01*
X165620332Y-66928426D01*
X165543726Y-66813776D01*
X165446224Y-66716274D01*
X165331574Y-66639668D01*
X165285755Y-66620689D01*
X166155045Y-65751400D01*
X166057849Y-65676819D01*
X166057841Y-65676813D01*
X165842159Y-65552288D01*
X165842148Y-65552283D01*
X165612049Y-65456973D01*
X165371463Y-65392508D01*
X165124534Y-65360000D01*
X164875466Y-65360000D01*
X164628536Y-65392508D01*
X164387950Y-65456973D01*
X164157851Y-65552283D01*
X164157847Y-65552285D01*
X163942143Y-65676823D01*
X163844953Y-65751399D01*
X163844953Y-65751400D01*
X164714243Y-66620690D01*
X164668426Y-66639668D01*
X164553776Y-66716274D01*
X164456274Y-66813776D01*
X164379668Y-66928426D01*
X164360690Y-66974243D01*
X163491400Y-66104953D01*
X163491399Y-66104953D01*
X163416823Y-66202143D01*
X163292285Y-66417847D01*
X163292283Y-66417851D01*
X163196973Y-66647950D01*
X163132508Y-66888536D01*
X163100000Y-67135466D01*
X134384706Y-67135466D01*
X134367982Y-67008435D01*
X134303502Y-66767793D01*
X134228574Y-66586901D01*
X134208169Y-66537638D01*
X134208162Y-66537623D01*
X134083599Y-66321873D01*
X133931939Y-66124225D01*
X133931933Y-66124218D01*
X133755781Y-65948066D01*
X133755774Y-65948060D01*
X133690181Y-65897729D01*
X133558126Y-65796400D01*
X133342376Y-65671837D01*
X133342361Y-65671830D01*
X133112207Y-65576498D01*
X132871561Y-65512017D01*
X132624575Y-65479501D01*
X132624570Y-65479500D01*
X132624565Y-65479500D01*
X132375435Y-65479500D01*
X132375429Y-65479500D01*
X132375424Y-65479501D01*
X132128438Y-65512017D01*
X131887792Y-65576498D01*
X131657638Y-65671830D01*
X131657623Y-65671837D01*
X131441873Y-65796400D01*
X131244225Y-65948060D01*
X131244218Y-65948066D01*
X131068066Y-66124218D01*
X131068060Y-66124225D01*
X130916400Y-66321873D01*
X130791837Y-66537623D01*
X130791830Y-66537638D01*
X130696498Y-66767792D01*
X130632017Y-67008438D01*
X130599501Y-67255424D01*
X130599500Y-67255441D01*
X124884198Y-67255441D01*
X124867491Y-67128536D01*
X124803026Y-66887950D01*
X124707716Y-66657851D01*
X124707711Y-66657840D01*
X124583186Y-66442158D01*
X124583180Y-66442150D01*
X124508598Y-66344953D01*
X123639309Y-67214242D01*
X123620332Y-67168426D01*
X123543726Y-67053776D01*
X123446224Y-66956274D01*
X123331574Y-66879668D01*
X123285755Y-66860689D01*
X124155045Y-65991400D01*
X124057849Y-65916819D01*
X124057841Y-65916813D01*
X123842159Y-65792288D01*
X123842148Y-65792283D01*
X123612049Y-65696973D01*
X123371463Y-65632508D01*
X123124534Y-65600000D01*
X122875466Y-65600000D01*
X122628536Y-65632508D01*
X122387950Y-65696973D01*
X122157851Y-65792283D01*
X122157847Y-65792285D01*
X121942143Y-65916823D01*
X121844953Y-65991399D01*
X121844953Y-65991400D01*
X122714243Y-66860690D01*
X122668426Y-66879668D01*
X122553776Y-66956274D01*
X122456274Y-67053776D01*
X122379668Y-67168426D01*
X122360690Y-67214243D01*
X121491400Y-66344953D01*
X121491399Y-66344953D01*
X121416823Y-66442143D01*
X121292285Y-66657847D01*
X121292283Y-66657851D01*
X121196973Y-66887950D01*
X121132508Y-67128536D01*
X121100000Y-67375466D01*
X67000500Y-67375466D01*
X67000500Y-57397648D01*
X143699500Y-57397648D01*
X143699500Y-57602351D01*
X143731522Y-57804534D01*
X143794781Y-57999223D01*
X143858691Y-58124653D01*
X143887585Y-58181359D01*
X143887715Y-58181613D01*
X144008028Y-58347213D01*
X144152786Y-58491971D01*
X144273226Y-58579474D01*
X144318390Y-58612287D01*
X144434607Y-58671503D01*
X144500776Y-58705218D01*
X144500778Y-58705218D01*
X144500781Y-58705220D01*
X144605137Y-58739127D01*
X144695465Y-58768477D01*
X144796557Y-58784488D01*
X144897648Y-58800500D01*
X144897649Y-58800500D01*
X145102351Y-58800500D01*
X145102352Y-58800500D01*
X145304534Y-58768477D01*
X145499219Y-58705220D01*
X145681610Y-58612287D01*
X145774590Y-58544732D01*
X145847213Y-58491971D01*
X145847215Y-58491968D01*
X145847219Y-58491966D01*
X145991966Y-58347219D01*
X145991968Y-58347215D01*
X145991971Y-58347213D01*
X146044732Y-58274590D01*
X146112287Y-58181610D01*
X146205220Y-57999219D01*
X146268477Y-57804534D01*
X146300500Y-57602352D01*
X146300500Y-57397682D01*
X148700000Y-57397682D01*
X148700000Y-57602317D01*
X148732009Y-57804417D01*
X148795244Y-57999031D01*
X148888141Y-58181350D01*
X148888147Y-58181359D01*
X148920523Y-58225921D01*
X148920524Y-58225922D01*
X149600000Y-57546446D01*
X149600000Y-57552661D01*
X149627259Y-57654394D01*
X149679920Y-57745606D01*
X149754394Y-57820080D01*
X149845606Y-57872741D01*
X149947339Y-57900000D01*
X149953553Y-57900000D01*
X149274076Y-58579474D01*
X149318650Y-58611859D01*
X149500968Y-58704755D01*
X149695582Y-58767990D01*
X149897683Y-58800000D01*
X150102317Y-58800000D01*
X150304417Y-58767990D01*
X150499031Y-58704755D01*
X150681349Y-58611859D01*
X150725921Y-58579474D01*
X150046447Y-57900000D01*
X150052661Y-57900000D01*
X150154394Y-57872741D01*
X150245606Y-57820080D01*
X150320080Y-57745606D01*
X150372741Y-57654394D01*
X150400000Y-57552661D01*
X150400000Y-57546448D01*
X151079474Y-58225922D01*
X151079474Y-58225921D01*
X151111859Y-58181349D01*
X151204755Y-57999031D01*
X151267990Y-57804417D01*
X151300000Y-57602317D01*
X151300000Y-57397682D01*
X151267990Y-57195582D01*
X151204755Y-57000968D01*
X151111859Y-56818650D01*
X151079474Y-56774077D01*
X151079474Y-56774076D01*
X150400000Y-57453551D01*
X150400000Y-57447339D01*
X150372741Y-57345606D01*
X150320080Y-57254394D01*
X150245606Y-57179920D01*
X150154394Y-57127259D01*
X150052661Y-57100000D01*
X150046446Y-57100000D01*
X150725922Y-56420524D01*
X150725921Y-56420523D01*
X150681359Y-56388147D01*
X150681350Y-56388141D01*
X150499031Y-56295244D01*
X150304417Y-56232009D01*
X150102317Y-56200000D01*
X149897683Y-56200000D01*
X149695582Y-56232009D01*
X149500968Y-56295244D01*
X149318644Y-56388143D01*
X149274077Y-56420523D01*
X149274077Y-56420524D01*
X149953554Y-57100000D01*
X149947339Y-57100000D01*
X149845606Y-57127259D01*
X149754394Y-57179920D01*
X149679920Y-57254394D01*
X149627259Y-57345606D01*
X149600000Y-57447339D01*
X149600000Y-57453553D01*
X148920524Y-56774077D01*
X148920523Y-56774077D01*
X148888143Y-56818644D01*
X148795244Y-57000968D01*
X148732009Y-57195582D01*
X148700000Y-57397682D01*
X146300500Y-57397682D01*
X146300500Y-57397648D01*
X146292257Y-57345606D01*
X146268477Y-57195465D01*
X146237458Y-57100000D01*
X146205220Y-57000781D01*
X146205218Y-57000778D01*
X146205218Y-57000776D01*
X146112419Y-56818650D01*
X146112287Y-56818390D01*
X146080092Y-56774077D01*
X145991971Y-56652786D01*
X145847213Y-56508028D01*
X145681613Y-56387715D01*
X145681612Y-56387714D01*
X145681610Y-56387713D01*
X145624653Y-56358691D01*
X145499223Y-56294781D01*
X145304534Y-56231522D01*
X145129995Y-56203878D01*
X145102352Y-56199500D01*
X144897648Y-56199500D01*
X144873329Y-56203351D01*
X144695465Y-56231522D01*
X144500776Y-56294781D01*
X144318386Y-56387715D01*
X144152786Y-56508028D01*
X144008028Y-56652786D01*
X143887715Y-56818386D01*
X143794781Y-57000776D01*
X143731522Y-57195465D01*
X143699500Y-57397648D01*
X67000500Y-57397648D01*
X67000500Y-46602135D01*
X133609500Y-46602135D01*
X133609500Y-48397870D01*
X133609501Y-48397876D01*
X133615908Y-48457483D01*
X133666202Y-48592328D01*
X133666206Y-48592335D01*
X133752452Y-48707544D01*
X133752455Y-48707547D01*
X133867664Y-48793793D01*
X133867671Y-48793797D01*
X134002517Y-48844091D01*
X134002516Y-48844091D01*
X134009444Y-48844835D01*
X134062127Y-48850500D01*
X135857872Y-48850499D01*
X135917483Y-48844091D01*
X136052331Y-48793796D01*
X136167546Y-48707546D01*
X136253796Y-48592331D01*
X136304091Y-48457483D01*
X136310500Y-48397873D01*
X136310499Y-48373979D01*
X136313330Y-48360963D01*
X136323940Y-48341525D01*
X136330179Y-48320275D01*
X136346803Y-48299643D01*
X136346808Y-48299636D01*
X136346811Y-48299634D01*
X136346818Y-48299626D01*
X137017037Y-47629408D01*
X137034075Y-47692993D01*
X137099901Y-47807007D01*
X137192993Y-47900099D01*
X137307007Y-47965925D01*
X137370590Y-47982962D01*
X136738282Y-48615269D01*
X136738282Y-48615270D01*
X136792449Y-48654624D01*
X136981782Y-48751095D01*
X137183870Y-48816757D01*
X137393754Y-48850000D01*
X137606246Y-48850000D01*
X137816127Y-48816757D01*
X137816130Y-48816757D01*
X138018217Y-48751095D01*
X138207554Y-48654622D01*
X138261716Y-48615270D01*
X138261717Y-48615270D01*
X137629408Y-47982962D01*
X137692993Y-47965925D01*
X137807007Y-47900099D01*
X137900099Y-47807007D01*
X137965925Y-47692993D01*
X137982962Y-47629409D01*
X138615270Y-48261717D01*
X138615270Y-48261716D01*
X138654622Y-48207554D01*
X138751095Y-48018217D01*
X138816757Y-47816130D01*
X138816757Y-47816127D01*
X138850000Y-47606246D01*
X138850000Y-47393753D01*
X138816757Y-47183872D01*
X138816757Y-47183869D01*
X138751094Y-46981779D01*
X138736497Y-46953130D01*
X138736496Y-46953129D01*
X138709416Y-46899983D01*
X145199500Y-46899983D01*
X145199500Y-48100001D01*
X145199501Y-48100018D01*
X145210000Y-48202796D01*
X145210001Y-48202799D01*
X145248929Y-48320275D01*
X145265186Y-48369334D01*
X145357288Y-48518656D01*
X145481344Y-48642712D01*
X145630666Y-48734814D01*
X145797203Y-48789999D01*
X145899991Y-48800500D01*
X147100008Y-48800499D01*
X147202797Y-48789999D01*
X147369334Y-48734814D01*
X147518656Y-48642712D01*
X147642712Y-48518656D01*
X147734814Y-48369334D01*
X147758102Y-48299054D01*
X147762110Y-48291050D01*
X147780060Y-48271772D01*
X147795055Y-48250116D01*
X147803495Y-48246606D01*
X147809725Y-48239917D01*
X147835249Y-48233404D01*
X147859571Y-48223292D01*
X147875834Y-48223048D01*
X147877425Y-48222643D01*
X147878523Y-48223008D01*
X147882719Y-48222946D01*
X147920525Y-48225921D01*
X148600000Y-47546446D01*
X148600000Y-47552661D01*
X148627259Y-47654394D01*
X148679920Y-47745606D01*
X148754394Y-47820080D01*
X148845606Y-47872741D01*
X148947339Y-47900000D01*
X148953553Y-47900000D01*
X148274076Y-48579474D01*
X148318650Y-48611859D01*
X148500968Y-48704755D01*
X148695582Y-48767990D01*
X148897683Y-48800000D01*
X149102317Y-48800000D01*
X149304417Y-48767990D01*
X149499031Y-48704755D01*
X149681349Y-48611859D01*
X149725921Y-48579474D01*
X149046447Y-47900000D01*
X149052661Y-47900000D01*
X149154394Y-47872741D01*
X149245606Y-47820080D01*
X149320080Y-47745606D01*
X149372741Y-47654394D01*
X149400000Y-47552661D01*
X149400000Y-47546448D01*
X150079474Y-48225922D01*
X150079474Y-48225921D01*
X150111859Y-48181349D01*
X150204755Y-47999031D01*
X150267990Y-47804417D01*
X150300000Y-47602317D01*
X150300000Y-47397682D01*
X150267990Y-47195582D01*
X150204755Y-47000968D01*
X150111859Y-46818650D01*
X150079474Y-46774077D01*
X150079474Y-46774076D01*
X149400000Y-47453551D01*
X149400000Y-47447339D01*
X149372741Y-47345606D01*
X149320080Y-47254394D01*
X149245606Y-47179920D01*
X149154394Y-47127259D01*
X149052661Y-47100000D01*
X149046446Y-47100000D01*
X149725922Y-46420524D01*
X149725921Y-46420523D01*
X149681359Y-46388147D01*
X149681350Y-46388141D01*
X149499031Y-46295244D01*
X149304417Y-46232009D01*
X149102317Y-46200000D01*
X148897683Y-46200000D01*
X148695582Y-46232009D01*
X148500968Y-46295244D01*
X148318644Y-46388143D01*
X148274077Y-46420523D01*
X148274077Y-46420524D01*
X148953554Y-47100000D01*
X148947339Y-47100000D01*
X148845606Y-47127259D01*
X148754394Y-47179920D01*
X148679920Y-47254394D01*
X148627259Y-47345606D01*
X148600000Y-47447339D01*
X148600000Y-47453553D01*
X147920524Y-46774077D01*
X147882719Y-46777053D01*
X147814341Y-46762689D01*
X147764584Y-46713638D01*
X147762110Y-46708949D01*
X147758101Y-46700942D01*
X147734814Y-46630666D01*
X147642712Y-46481344D01*
X147518656Y-46357288D01*
X147413543Y-46292454D01*
X147369336Y-46265187D01*
X147369331Y-46265185D01*
X147320198Y-46248904D01*
X147202797Y-46210001D01*
X147202795Y-46210000D01*
X147100010Y-46199500D01*
X145899998Y-46199500D01*
X145899981Y-46199501D01*
X145797203Y-46210000D01*
X145797200Y-46210001D01*
X145630668Y-46265185D01*
X145630663Y-46265187D01*
X145481342Y-46357289D01*
X145357289Y-46481342D01*
X145265187Y-46630663D01*
X145265186Y-46630666D01*
X145210001Y-46797203D01*
X145210001Y-46797204D01*
X145210000Y-46797204D01*
X145199500Y-46899983D01*
X138709416Y-46899983D01*
X138654624Y-46792450D01*
X138615270Y-46738282D01*
X138615269Y-46738282D01*
X137982962Y-47370590D01*
X137965925Y-47307007D01*
X137900099Y-47192993D01*
X137807007Y-47099901D01*
X137692993Y-47034075D01*
X137629409Y-47017037D01*
X138261716Y-46384728D01*
X138207550Y-46345375D01*
X138018217Y-46248904D01*
X137816129Y-46183242D01*
X137606246Y-46150000D01*
X137393754Y-46150000D01*
X137183872Y-46183242D01*
X137183869Y-46183242D01*
X136981782Y-46248904D01*
X136792439Y-46345380D01*
X136738282Y-46384727D01*
X136738282Y-46384728D01*
X137370591Y-47017037D01*
X137307007Y-47034075D01*
X137192993Y-47099901D01*
X137099901Y-47192993D01*
X137034075Y-47307007D01*
X137017037Y-47370591D01*
X136346818Y-46700372D01*
X136313333Y-46639049D01*
X136313330Y-46639036D01*
X136310499Y-46626015D01*
X136310499Y-46602128D01*
X136304091Y-46542517D01*
X136258591Y-46420524D01*
X136253798Y-46407673D01*
X136253793Y-46407664D01*
X136167547Y-46292455D01*
X136167544Y-46292452D01*
X136052335Y-46206206D01*
X136052328Y-46206202D01*
X135917482Y-46155908D01*
X135917483Y-46155908D01*
X135857883Y-46149501D01*
X135857881Y-46149500D01*
X135857873Y-46149500D01*
X135857864Y-46149500D01*
X134062129Y-46149500D01*
X134062123Y-46149501D01*
X134002516Y-46155908D01*
X133867671Y-46206202D01*
X133867664Y-46206206D01*
X133752455Y-46292452D01*
X133752452Y-46292455D01*
X133666206Y-46407664D01*
X133666202Y-46407671D01*
X133615908Y-46542517D01*
X133609501Y-46602116D01*
X133609500Y-46602135D01*
X67000500Y-46602135D01*
X67000500Y-44502560D01*
X67000606Y-44497436D01*
X67003225Y-44434108D01*
X67017364Y-44092251D01*
X67018207Y-44082082D01*
X67068055Y-43682178D01*
X67069735Y-43672106D01*
X67152435Y-43277693D01*
X67154942Y-43267797D01*
X67269931Y-42881555D01*
X67273245Y-42871903D01*
X67419727Y-42496502D01*
X67423841Y-42487123D01*
X67600825Y-42125094D01*
X67605686Y-42116110D01*
X67811973Y-41769918D01*
X67817556Y-41761372D01*
X68051728Y-41433394D01*
X68057996Y-41425342D01*
X68318444Y-41117832D01*
X68325363Y-41110316D01*
X68610316Y-40825363D01*
X68617832Y-40818444D01*
X68925342Y-40557996D01*
X68933394Y-40551728D01*
X69261372Y-40317556D01*
X69269918Y-40311973D01*
X69616110Y-40105686D01*
X69625094Y-40100825D01*
X69987128Y-39923838D01*
X69996502Y-39919727D01*
X70371903Y-39773245D01*
X70381555Y-39769931D01*
X70767797Y-39654942D01*
X70777693Y-39652435D01*
X71172106Y-39569735D01*
X71182178Y-39568055D01*
X71582082Y-39518207D01*
X71592251Y-39517364D01*
X71997437Y-39500605D01*
X72002561Y-39500500D01*
X72073646Y-39500500D01*
X72074435Y-39500447D01*
X229608361Y-39389588D01*
X229613494Y-39389693D01*
G37*
%TD.AperFunction*%
%TD*%
M02*
