%TF.GenerationSoftware,KiCad,Pcbnew,10.0.6*%
%TF.CreationDate,2026-09-24T22:27:07-04:00*%
%TF.ProjectId,P4_PCB,50345f50-4342-42e6-9b69-6361645f7063,rev?*%
%TF.SameCoordinates,Original*%
%TF.FileFunction,Soldermask,Top*%
%TF.FilePolarity,Negative*%
%FSLAX46Y46*%
G04 Gerber Fmt 4.6, Leading zero omitted, Abs format (unit mm)*
G04 Created by KiCad (PCBNEW 10.0.6) date 2026-09-24 22:27:07*
%MOMM*%
%LPD*%
G01*
G04 APERTURE LIST*
G04 Aperture macros list*
%AMRoundRect*
0 Rectangle with rounded corners*
0 $1 Rounding radius*
0 $2 $3 $4 $5 $6 $7 $8 $9 X,Y pos of 4 corners*
0 Add a 4 corners polygon primitive as box body*
4,1,4,$2,$3,$4,$5,$6,$7,$8,$9,$2,$3,0*
0 Add four circle primitives for the rounded corners*
1,1,$1+$1,$2,$3*
1,1,$1+$1,$4,$5*
1,1,$1+$1,$6,$7*
1,1,$1+$1,$8,$9*
0 Add four rect primitives between the rounded corners*
20,1,$1+$1,$2,$3,$4,$5,0*
20,1,$1+$1,$4,$5,$6,$7,0*
20,1,$1+$1,$6,$7,$8,$9,0*
20,1,$1+$1,$8,$9,$2,$3,0*%
G04 Aperture macros list end*
%ADD10R,1.800000X1.800000*%
%ADD11C,1.800000*%
%ADD12C,2.800000*%
%ADD13R,1.700000X1.700000*%
%ADD14C,1.700000*%
%ADD15RoundRect,0.250000X-0.550000X-0.550000X0.550000X-0.550000X0.550000X0.550000X-0.550000X0.550000X0*%
%ADD16C,1.600000*%
%ADD17C,1.400000*%
%ADD18RoundRect,0.250000X-0.950000X-0.550000X0.950000X-0.550000X0.950000X0.550000X-0.950000X0.550000X0*%
%ADD19O,2.400000X1.600000*%
G04 APERTURE END LIST*
D10*
%TO.C,D3*%
X215880000Y-85000000D03*
D11*
X213340000Y-85000000D03*
%TD*%
D10*
%TO.C,D1*%
X216270000Y-105000000D03*
D11*
X213730000Y-105000000D03*
%TD*%
D12*
%TO.C,R4*%
X189880000Y-75000000D03*
X205120000Y-75000000D03*
%TD*%
%TO.C,R8*%
X132500000Y-94380000D03*
X132500000Y-109620000D03*
%TD*%
%TO.C,R1*%
X189880000Y-105000000D03*
X205120000Y-105000000D03*
%TD*%
%TO.C,R3*%
X189760000Y-85000000D03*
X205000000Y-85000000D03*
%TD*%
%TO.C,R5*%
X107500000Y-82380000D03*
X107500000Y-97620000D03*
%TD*%
D13*
%TO.C,J1*%
X134960000Y-47500000D03*
D14*
X137500000Y-47500000D03*
%TD*%
D15*
%TO.C,C2*%
X146500000Y-47500000D03*
D16*
X149000000Y-47500000D03*
%TD*%
%TO.C,C3*%
X95000000Y-88000000D03*
X95000000Y-93000000D03*
%TD*%
D10*
%TO.C,D4*%
X216270000Y-75000000D03*
D11*
X213730000Y-75000000D03*
%TD*%
D10*
%TO.C,D5*%
X82500000Y-117540000D03*
D11*
X82500000Y-115000000D03*
%TD*%
D12*
%TO.C,R9*%
X123000000Y-109620000D03*
X123000000Y-94380000D03*
%TD*%
%TO.C,R13*%
X165000000Y-82500000D03*
X165000000Y-67260000D03*
%TD*%
D16*
%TO.C,C1*%
X145000000Y-57500000D03*
X150000000Y-57500000D03*
%TD*%
D17*
%TO.C,TH1*%
X82500000Y-74960000D03*
X82500000Y-77500000D03*
%TD*%
D12*
%TO.C,R14*%
X82500000Y-92380000D03*
X82500000Y-107620000D03*
%TD*%
%TO.C,R2*%
X189880000Y-95000000D03*
X205120000Y-95000000D03*
%TD*%
%TO.C,R10*%
X175000000Y-94760000D03*
X175000000Y-110000000D03*
%TD*%
%TO.C,R6*%
X132500000Y-67380000D03*
X132500000Y-82620000D03*
%TD*%
%TO.C,R11*%
X164500000Y-110000000D03*
X164500000Y-94760000D03*
%TD*%
%TO.C,R12*%
X175000000Y-67260000D03*
X175000000Y-82500000D03*
%TD*%
%TO.C,R7*%
X123000000Y-82740000D03*
X123000000Y-67500000D03*
%TD*%
D10*
%TO.C,D2*%
X216275000Y-95000000D03*
D11*
X213735000Y-95000000D03*
%TD*%
D18*
%TO.C,U1*%
X145000000Y-77340000D03*
D19*
X145000000Y-79880000D03*
X145000000Y-82420000D03*
X145000000Y-84960000D03*
X145000000Y-87500000D03*
X145000000Y-90040000D03*
X145000000Y-92580000D03*
X152620000Y-92580000D03*
X152620000Y-90040000D03*
X152620000Y-87500000D03*
X152620000Y-84960000D03*
X152620000Y-82420000D03*
X152620000Y-79880000D03*
X152620000Y-77340000D03*
%TD*%
M02*
